<svg xmlns="http://www.w3.org/2000/svg" width="20" height="21" viewBox="0 0 20 21" fill="none">
    <path fill-rule="evenodd" clip-rule="evenodd" d="M5.2284 3.85333H14.7723C15.716 3.851 16.6219 4.22426 17.29 4.89076C17.9582 5.55726 18.3337 6.46222 18.3337 7.40596V13.4586C18.3337 14.4023 17.9582 15.3073 17.29 15.9738C16.6219 16.6403 15.716 17.0136 14.7723 17.0112H5.2284C4.28466 17.0136 3.37878 16.6403 2.71063 15.9738C2.04249 15.3073 1.66699 14.4023 1.66699 13.4586V7.40596C1.66699 6.46222 2.04249 5.55726 2.71063 4.89076C3.37878 4.22426 4.28466 3.851 5.2284 3.85333ZM14.7723 15.6954C15.9922 15.6958 16.9893 14.7221 17.0179 13.5025V7.40596C17.013 6.16917 16.0091 5.16911 14.7723 5.16912H5.2284C3.99159 5.16911 2.98761 6.16917 2.98278 7.40596V13.4586C2.98761 14.6954 3.99159 15.6954 5.2284 15.6954H14.7723Z" fill="black"/>
    <path fill-rule="evenodd" clip-rule="evenodd" d="M6.43015 10.6779C6.43015 8.74006 8.00108 7.16913 9.93892 7.16913C11.8768 7.16913 13.4477 8.74006 13.4477 10.6779C13.4477 12.6157 11.8768 14.1867 9.93892 14.1867C8.00108 14.1867 6.43015 12.6157 6.43015 10.6779ZM7.74594 10.6779C7.74594 11.8891 8.72777 12.8709 9.93892 12.8709C11.1501 12.8709 12.1319 11.8891 12.1319 10.6779C12.1319 9.46675 11.1501 8.48492 9.93892 8.48492C8.72777 8.48492 7.74594 9.46675 7.74594 10.6779Z" fill="black"/>
    <path d="M13.4477 6.69983C13.4477 6.46971 13.6342 6.28316 13.8644 6.28316H14.7854C15.0155 6.28316 15.2021 6.46971 15.2021 6.69983V7.62966C15.2021 7.85977 15.0155 8.04632 14.7854 8.04632H13.8644C13.6342 8.04632 13.4477 7.85977 13.4477 7.62966V6.69983Z" fill="black"/>
    </svg>