<svg width="24" height="24" viewBox="0 0 24 24" fill="none" xmlns="http://www.w3.org/2000/svg">
    <path fill-rule="evenodd" clip-rule="evenodd"
        d="M21.2483 11.1516C21.4733 11.3767 21.5996 11.6818 21.5996 12C21.5996 12.3182 21.4733 12.6234 21.2483 12.8484L12.8483 21.2484C12.6233 21.4734 12.3181 21.5998 11.9999 21.5998C11.6817 21.5998 11.3765 21.4734 11.1515 21.2484L2.7515 12.8484C2.63991 12.7371 2.55139 12.6049 2.49106 12.4593C2.43072 12.3137 2.39974 12.1576 2.3999 12V6.00002C2.3999 5.04524 2.77919 4.12957 3.45432 3.45444C4.12945 2.77931 5.04512 2.40002 5.9999 2.40002H11.9999C12.3071 2.40002 12.6143 2.51762 12.8483 2.75162L21.2483 11.1516ZM5.9999 7.20002C6.31816 7.20002 6.62339 7.0736 6.84843 6.84855C7.07347 6.62351 7.1999 6.31828 7.1999 6.00002C7.1999 5.68176 7.07347 5.37654 6.84843 5.1515C6.62339 4.92645 6.31816 4.80002 5.9999 4.80002C5.68164 4.80002 5.37642 4.92645 5.15138 5.1515C4.92633 5.37654 4.7999 5.68176 4.7999 6.00002C4.7999 6.31828 4.92633 6.62351 5.15138 6.84855C5.37642 7.0736 5.68164 7.20002 5.9999 7.20002Z"
        fill="white" />
</svg>