<svg width="58" height="58" viewBox="0 0 58 58" fill="none" xmlns="http://www.w3.org/2000/svg">
<path fill-rule="evenodd" clip-rule="evenodd" d="M50.7428 26.5207H50.75C52.0816 26.5207 53.1643 27.5985 53.1667 28.9301C53.186 35.385 50.6896 41.4629 46.1366 46.0401C41.586 50.6172 35.525 53.1475 29.0701 53.1668H29C22.5693 53.1668 16.5204 50.6728 11.9601 46.1367C7.38295 41.5862 4.8527 35.5252 4.83336 29.0702C4.81403 22.6129 7.31045 16.5374 11.8634 11.9602C16.414 7.38308 22.475 4.85283 28.9299 4.8335C30.8512 4.8625 32.8087 5.05583 34.684 5.50533C35.9794 5.8195 36.7793 7.1245 36.4651 8.42225C36.1534 9.71758 34.8411 10.5151 33.5506 10.2057C32.0499 9.84325 30.4573 9.691 28.9444 9.66683C23.78 9.68133 18.9298 11.7065 15.2903 15.3677C11.6484 19.029 9.6522 23.8913 9.6667 29.0557C9.6812 34.2202 11.7064 39.068 15.3676 42.7099C19.0168 46.3373 23.8549 48.3335 29 48.3335H29.0556C34.22 48.319 39.0703 46.2938 42.7098 42.6326C46.3517 38.9689 48.3479 34.109 48.3334 28.9446C48.3309 27.6106 49.4088 26.5231 50.7428 26.5207ZM20.0414 27.2917C20.9863 26.3468 22.5137 26.3468 23.4586 27.2917L28.8816 32.7147L44.0993 15.3244C44.979 14.3263 46.5039 14.2199 47.5093 15.0996C48.5122 15.9769 48.6137 17.5042 47.734 18.5095L30.8173 37.8429C30.3775 38.3455 29.7492 38.6428 29.0798 38.6669H29C28.3596 38.6669 27.7458 38.4132 27.2914 37.9589L20.0414 30.7089C19.0965 29.7639 19.0965 28.2366 20.0414 27.2917Z" fill="#3E3E36"/>
</svg>
