<svg width="24" height="24" viewBox="0 0 24 24" fill="none" xmlns="http://www.w3.org/2000/svg">
    <path fill-rule="evenodd" clip-rule="evenodd"
        d="M7.9502 3.18596C9.5898 2.52271 11.3672 2.27229 13.1262 2.45669C14.8853 2.64109 16.5721 3.25468 18.0385 4.24354C19.5049 5.2324 20.706 6.56626 21.5363 8.12794C22.3665 9.68961 22.8006 11.4313 22.8002 13.2C22.8002 13.5182 22.6738 13.8234 22.4487 14.0485C22.2237 14.2735 21.9185 14.4 21.6002 14.4C21.2819 14.4 20.9767 14.2735 20.7517 14.0485C20.5266 13.8234 20.4002 13.5182 20.4002 13.2C20.4008 11.8242 20.0634 10.4693 19.4177 9.25447C18.7721 8.0396 17.8379 7.00192 16.6974 6.23261C15.5568 5.46329 14.2447 4.98591 12.8764 4.8424C11.5082 4.69889 10.1256 4.89365 8.8502 5.40956C8.70316 5.47448 8.54458 5.50921 8.38386 5.51166C8.22314 5.51412 8.06357 5.48427 7.91461 5.42387C7.76565 5.36347 7.63035 5.27376 7.51672 5.16007C7.4031 5.04638 7.31348 4.91102 7.25317 4.76202C7.19286 4.61303 7.16311 4.45344 7.16566 4.29272C7.16822 4.132 7.20304 3.97344 7.26805 3.82644C7.33306 3.67944 7.42695 3.54699 7.54413 3.43697C7.66131 3.32695 7.7994 3.24159 7.9502 3.18596ZM5.5946 5.95076C5.83305 6.16135 5.97811 6.458 5.99791 6.7755C6.01771 7.09301 5.91063 7.40538 5.7002 7.64396C4.34404 9.17667 3.59689 11.1534 3.6002 13.2C3.6002 13.5182 3.47378 13.8234 3.24873 14.0485C3.02369 14.2735 2.71846 14.4 2.4002 14.4C2.08194 14.4 1.77672 14.2735 1.55168 14.0485C1.32663 13.8234 1.2002 13.5182 1.2002 13.2C1.19686 10.5688 2.15736 8.02753 3.9002 6.05636C4.00449 5.93812 4.13106 5.84159 4.27267 5.77229C4.41428 5.70298 4.56817 5.66226 4.72552 5.65246C4.88288 5.64265 5.04062 5.66395 5.18975 5.71513C5.33887 5.76632 5.47644 5.84639 5.5946 5.95076Z"
        fill="white" />
    <path fill-rule="evenodd" clip-rule="evenodd"
        d="M6.00006 13.2C6.00006 11.6087 6.6322 10.0825 7.75742 8.95731C8.88264 7.83209 10.4088 7.19995 12.0001 7.19995C13.5914 7.19995 15.1175 7.83209 16.2427 8.95731C17.3679 10.0825 18.0001 11.6087 18.0001 13.2C18.0001 13.5182 17.8736 13.8234 17.6486 14.0485C17.4235 14.2735 17.1183 14.4 16.8001 14.4C16.4818 14.4 16.1766 14.2735 15.9515 14.0485C15.7265 13.8234 15.6001 13.5182 15.6001 13.2C15.6001 12.2452 15.2208 11.3295 14.5456 10.6544C13.8705 9.97924 12.9548 9.59995 12.0001 9.59995C11.0453 9.59995 10.1296 9.97924 9.45448 10.6544C8.77935 11.3295 8.40006 12.2452 8.40006 13.2C8.40006 15.2124 7.98606 17.1312 7.23846 18.8748C7.11291 19.1672 6.87631 19.3979 6.58071 19.5159C6.28512 19.6339 5.95474 19.6297 5.66226 19.5042C5.36978 19.3786 5.13916 19.142 5.02112 18.8464C4.90308 18.5508 4.90731 18.2204 5.03286 17.9279C5.67326 16.4341 6.00237 14.8253 6.00006 13.2ZM16.7053 15.6144C16.861 15.639 17.0103 15.6942 17.1447 15.7766C17.2791 15.859 17.396 15.9671 17.4886 16.0947C17.5812 16.2223 17.6477 16.3669 17.6844 16.5202C17.7211 16.6736 17.7273 16.8326 17.7025 16.9883C17.546 17.9755 17.3275 18.9518 17.0485 19.9116C17.0075 20.0662 16.936 20.2111 16.8382 20.3376C16.7403 20.4642 16.6182 20.57 16.4789 20.6487C16.3397 20.7274 16.1861 20.7775 16.0272 20.796C15.8683 20.8144 15.7073 20.801 15.5536 20.7563C15.4 20.7117 15.2569 20.6368 15.1326 20.536C15.0084 20.4352 14.9056 20.3106 14.8302 20.1695C14.7548 20.0284 14.7084 19.8737 14.6936 19.7144C14.6789 19.5551 14.6962 19.3945 14.7445 19.242C14.9929 18.3864 15.1897 17.508 15.3325 16.6116C15.3826 16.2975 15.5554 16.0162 15.8128 15.8295C16.0702 15.6427 16.3912 15.5658 16.7053 15.6156V15.6144Z"
        fill="white" />
    <path fill-rule="evenodd" clip-rule="evenodd"
        d="M12 12C12.3183 12 12.6235 12.1264 12.8486 12.3515C13.0736 12.5765 13.2 12.8817 13.2 13.2C13.2 15.8832 12.648 18.4416 11.652 20.7648C11.5899 20.9096 11.4998 21.0408 11.3869 21.1508C11.2741 21.2608 11.1407 21.3475 10.9943 21.4059C10.8479 21.4644 10.6915 21.4934 10.5339 21.4914C10.3763 21.4894 10.2207 21.4564 10.0758 21.3942C9.93101 21.332 9.79986 21.2419 9.68985 21.1291C9.57984 21.0162 9.49314 20.8828 9.43469 20.7365C9.37625 20.5901 9.3472 20.4336 9.34922 20.2761C9.35123 20.1185 9.38427 19.9628 9.44644 19.818C10.3426 17.7269 10.8032 15.4751 10.8 13.2C10.8 12.8817 10.9265 12.5765 11.1515 12.3515C11.3766 12.1264 11.6818 12 12 12Z"
        fill="white" />
</svg>