<svg width="15" height="16" viewBox="0 0 15 16" fill="none" xmlns="http://www.w3.org/2000/svg">
<path d="M10.5 0.5L14.25 4.25V14.756C14.2498 14.9534 14.1712 15.1426 14.0316 15.2821C13.892 15.4216 13.7026 15.5 13.5052 15.5H1.49475C1.29778 15.4986 1.10926 15.4198 0.969913 15.2806C0.830563 15.1414 0.751571 14.953 0.75 14.756V1.244C0.75 0.833 1.08375 0.5 1.49475 0.5H10.5ZM8.4 8L10.5 5H8.7L7.5 6.7145L6.3 5H4.5L6.6 8L4.5 11H6.3L7.5 9.2855L8.7 11H10.5L8.4 8Z" fill="#125766" fill-opacity="0.37"/>
</svg>
