<svg width="16" height="18" viewBox="0 0 16 18" fill="none" xmlns="http://www.w3.org/2000/svg">
<path d="M11.25 1.5L15 5.25V15.756C14.9998 15.9534 14.9212 16.1426 14.7816 16.2821C14.642 16.4216 14.4526 16.5 14.2552 16.5H2.24475C2.04778 16.4986 1.85926 16.4198 1.71991 16.2806C1.58056 16.1414 1.50157 15.953 1.5 15.756V2.244C1.5 1.833 1.83375 1.5 2.24475 1.5H11.25ZM8.25 12C9.04565 12 9.80871 11.6839 10.3713 11.1213C10.9339 10.5587 11.25 9.79565 11.25 9C11.25 8.20435 10.9339 7.44129 10.3713 6.87868C9.80871 6.31607 9.04565 6 8.25 6H5.25V12H8.25ZM6.75 7.5H8.25C8.64782 7.5 9.02936 7.65804 9.31066 7.93934C9.59196 8.22064 9.75 8.60217 9.75 9C9.75 9.39782 9.59196 9.77935 9.31066 10.0607C9.02936 10.342 8.64782 10.5 8.25 10.5H6.75V7.5Z" fill="white"/>
</svg>
