<svg width="15" height="16" viewBox="0 0 15 16" fill="none" xmlns="http://www.w3.org/2000/svg">
<path d="M10.5 0.5L14.25 4.25V14.756C14.2498 14.9534 14.1712 15.1426 14.0316 15.2821C13.892 15.4216 13.7026 15.5 13.5052 15.5H1.49475C1.29778 15.4986 1.10926 15.4198 0.969913 15.2806C0.830563 15.1414 0.751571 14.953 0.75 14.756V1.244C0.75 0.833 1.08375 0.5 1.49475 0.5H10.5ZM7.5 11C8.29565 11 9.05871 10.6839 9.62132 10.1213C10.1839 9.55871 10.5 8.79565 10.5 8C10.5 7.20435 10.1839 6.44129 9.62132 5.87868C9.05871 5.31607 8.29565 5 7.5 5H4.5V11H7.5ZM6 6.5H7.5C7.89782 6.5 8.27936 6.65804 8.56066 6.93934C8.84196 7.22064 9 7.60217 9 8C9 8.39782 8.84196 8.77936 8.56066 9.06066C8.27936 9.34196 7.89782 9.5 7.5 9.5H6V6.5Z" fill="#E88F84"/>
</svg>
