<svg width="311" height="209" viewBox="0 0 311 209" fill="none" xmlns="http://www.w3.org/2000/svg">
<g filter="url(#filter0_d_351_1247)">
<rect x="105.457" y="21.2113" width="112" height="112" transform="rotate(45.7644 105.457 21.2113)" stroke="#EE9B00" stroke-width="30" shape-rendering="crispEdges"/>
</g>
<g filter="url(#filter1_d_351_1247)">
<rect x="207.457" y="21.2113" width="112" height="112" transform="rotate(45.7644 207.457 21.2113)" stroke="#005F73" stroke-width="30" shape-rendering="crispEdges"/>
</g>
<g filter="url(#filter2_d_351_1247)">
<path d="M103.211 66.105V78.005H119.241V86.755H103.211V98.9H124.141V108H91.311V57.005H124.141V66.105H103.211ZM177.708 82.485C177.708 86.1717 177.066 89.5783 175.783 92.705C174.523 95.8083 172.738 98.5033 170.428 100.79C168.118 103.053 165.33 104.827 162.063 106.11C158.82 107.37 155.215 108 151.248 108H131.438V57.005H151.248C155.215 57.005 158.82 57.6467 162.063 58.93C165.33 60.2133 168.118 61.9867 170.428 64.25C172.738 66.5133 174.523 69.2083 175.783 72.335C177.066 75.4383 177.708 78.8217 177.708 82.485ZM165.598 82.485C165.598 79.965 165.271 77.69 164.618 75.66C163.965 73.63 163.02 71.915 161.783 70.515C160.57 69.0917 159.076 68.0067 157.303 67.26C155.53 66.49 153.511 66.105 151.248 66.105H143.338V98.9H151.248C153.511 98.9 155.53 98.5267 157.303 97.78C159.076 97.01 160.57 95.925 161.783 94.525C163.02 93.1017 163.965 91.375 164.618 89.345C165.271 87.315 165.598 85.0283 165.598 82.485ZM219.06 94.805C219.34 94.805 219.62 94.8633 219.9 94.98C220.18 95.0733 220.448 95.2483 220.705 95.505L225.395 100.44C223.342 103.123 220.763 105.153 217.66 106.53C214.58 107.883 210.928 108.56 206.705 108.56C202.832 108.56 199.355 107.907 196.275 106.6C193.218 105.27 190.617 103.45 188.47 101.14C186.347 98.8067 184.713 96.0533 183.57 92.88C182.427 89.6833 181.855 86.2183 181.855 82.485C181.855 78.6817 182.473 75.1933 183.71 72.02C184.947 68.8233 186.685 66.07 188.925 63.76C191.165 61.45 193.848 59.6533 196.975 58.37C200.102 57.0867 203.543 56.445 207.3 56.445C209.213 56.445 211.01 56.62 212.69 56.97C214.393 57.2967 215.98 57.7633 217.45 58.37C218.92 58.9533 220.273 59.665 221.51 60.505C222.747 61.345 223.843 62.255 224.8 63.235L220.81 68.59C220.553 68.9167 220.25 69.22 219.9 69.5C219.55 69.7567 219.06 69.885 218.43 69.885C218.01 69.885 217.613 69.7917 217.24 69.605C216.867 69.4183 216.47 69.1967 216.05 68.94C215.63 68.66 215.163 68.3683 214.65 68.065C214.16 67.7383 213.565 67.4467 212.865 67.19C212.188 66.91 211.383 66.6767 210.45 66.49C209.54 66.3033 208.467 66.21 207.23 66.21C205.27 66.21 203.473 66.5717 201.84 67.295C200.23 68.0183 198.83 69.08 197.64 70.48C196.473 71.8567 195.563 73.56 194.91 75.59C194.28 77.5967 193.965 79.895 193.965 82.485C193.965 85.0983 194.315 87.42 195.015 89.45C195.738 91.48 196.707 93.195 197.92 94.595C199.157 95.9717 200.592 97.0217 202.225 97.745C203.858 98.4683 205.608 98.83 207.475 98.83C208.548 98.83 209.528 98.7833 210.415 98.69C211.302 98.5733 212.13 98.3983 212.9 98.165C213.67 97.9083 214.393 97.5817 215.07 97.185C215.747 96.765 216.435 96.24 217.135 95.61C217.415 95.3767 217.718 95.19 218.045 95.05C218.372 94.8867 218.71 94.805 219.06 94.805ZM103.666 115.14C103.546 115.367 103.373 115.48 103.146 115.48C102.973 115.48 102.746 115.36 102.466 115.12C102.199 114.867 101.833 114.593 101.366 114.3C100.899 113.993 100.313 113.713 99.6061 113.46C98.9128 113.207 98.0528 113.08 97.0261 113.08C95.9994 113.08 95.0928 113.227 94.3061 113.52C93.5328 113.813 92.8794 114.213 92.3461 114.72C91.8261 115.227 91.4261 115.813 91.1461 116.48C90.8794 117.147 90.7461 117.847 90.7461 118.58C90.7461 119.54 90.9461 120.333 91.3461 120.96C91.7594 121.587 92.2994 122.12 92.9661 122.56C93.6328 123 94.3861 123.373 95.2261 123.68C96.0794 123.973 96.9528 124.267 97.8461 124.56C98.7394 124.853 99.6061 125.18 100.446 125.54C101.299 125.887 102.059 126.327 102.726 126.86C103.393 127.393 103.926 128.053 104.326 128.84C104.739 129.613 104.946 130.58 104.946 131.74C104.946 132.927 104.739 134.047 104.326 135.1C103.926 136.14 103.339 137.047 102.566 137.82C101.793 138.593 100.846 139.207 99.7261 139.66C98.6061 140.1 97.3261 140.32 95.8861 140.32C94.0194 140.32 92.4128 139.993 91.0661 139.34C89.7194 138.673 88.5394 137.767 87.5261 136.62L88.0861 135.74C88.2461 135.54 88.4328 135.44 88.6461 135.44C88.7661 135.44 88.9194 135.52 89.1061 135.68C89.2928 135.84 89.5194 136.04 89.7861 136.28C90.0528 136.507 90.3728 136.76 90.7461 137.04C91.1194 137.307 91.5528 137.56 92.0461 137.8C92.5394 138.027 93.1061 138.22 93.7461 138.38C94.3861 138.54 95.1128 138.62 95.9261 138.62C97.0461 138.62 98.0461 138.453 98.9261 138.12C99.8061 137.773 100.546 137.307 101.146 136.72C101.759 136.133 102.226 135.44 102.546 134.64C102.866 133.827 103.026 132.96 103.026 132.04C103.026 131.04 102.819 130.22 102.406 129.58C102.006 128.927 101.473 128.387 100.806 127.96C100.139 127.52 99.3794 127.153 98.5261 126.86C97.6861 126.567 96.8194 126.28 95.9261 126C95.0328 125.72 94.1594 125.407 93.3061 125.06C92.4661 124.713 91.7128 124.273 91.0461 123.74C90.3794 123.193 89.8394 122.52 89.4261 121.72C89.0261 120.907 88.8261 119.893 88.8261 118.68C88.8261 117.733 89.0061 116.82 89.3661 115.94C89.7261 115.06 90.2528 114.287 90.9461 113.62C91.6394 112.94 92.4928 112.4 93.5061 112C94.5328 111.587 95.6994 111.38 97.0061 111.38C98.4728 111.38 99.7861 111.613 100.946 112.08C102.119 112.547 103.186 113.26 104.146 114.22L103.666 115.14ZM123.817 124.38C123.097 123.273 122.264 122.48 121.317 122C120.37 121.507 119.304 121.26 118.117 121.26C116.944 121.26 115.917 121.473 115.037 121.9C114.157 122.327 113.417 122.933 112.817 123.72C112.23 124.493 111.784 125.427 111.477 126.52C111.184 127.6 111.037 128.793 111.037 130.1C111.037 133.06 111.577 135.24 112.657 136.64C113.75 138.027 115.324 138.72 117.377 138.72C118.684 138.72 119.877 138.38 120.957 137.7C122.037 137.02 122.99 136.067 123.817 134.84V124.38ZM125.717 120.1V147.04H123.817V136.42C122.937 137.593 121.917 138.527 120.757 139.22C119.597 139.913 118.29 140.26 116.837 140.26C114.384 140.26 112.477 139.413 111.117 137.72C109.757 136.027 109.077 133.487 109.077 130.1C109.077 128.647 109.264 127.293 109.637 126.04C110.024 124.773 110.584 123.68 111.317 122.76C112.05 121.827 112.95 121.093 114.017 120.56C115.097 120.027 116.337 119.76 117.737 119.76C119.11 119.76 120.297 120.02 121.297 120.54C122.297 121.047 123.164 121.807 123.897 122.82L124.077 120.6C124.13 120.267 124.33 120.1 124.677 120.1H125.717ZM147.708 120.1V140H146.648C146.315 140 146.122 139.827 146.068 139.48L145.888 136.52C144.968 137.667 143.902 138.587 142.688 139.28C141.488 139.973 140.148 140.32 138.668 140.32C137.562 140.32 136.595 140.147 135.768 139.8C134.942 139.453 134.255 138.953 133.708 138.3C133.162 137.647 132.748 136.86 132.468 135.94C132.188 135.02 132.048 133.98 132.048 132.82V120.1H133.968V132.82C133.968 134.687 134.395 136.153 135.248 137.22C136.102 138.273 137.402 138.8 139.148 138.8C140.442 138.8 141.648 138.473 142.768 137.82C143.902 137.153 144.908 136.233 145.788 135.06V120.1H147.708ZM165.4 130.38C163.507 130.447 161.874 130.6 160.5 130.84C159.14 131.067 158.014 131.38 157.12 131.78C156.24 132.18 155.587 132.66 155.16 133.22C154.734 133.767 154.52 134.393 154.52 135.1C154.52 135.767 154.627 136.347 154.84 136.84C155.067 137.32 155.36 137.72 155.72 138.04C156.094 138.347 156.52 138.573 157 138.72C157.48 138.867 157.98 138.94 158.5 138.94C159.274 138.94 159.98 138.86 160.62 138.7C161.274 138.527 161.874 138.293 162.42 138C162.98 137.693 163.5 137.333 163.98 136.92C164.46 136.507 164.934 136.06 165.4 135.58V130.38ZM153.7 122.92C154.74 121.88 155.834 121.093 156.98 120.56C158.127 120.027 159.427 119.76 160.88 119.76C161.947 119.76 162.88 119.933 163.68 120.28C164.48 120.613 165.14 121.1 165.66 121.74C166.194 122.367 166.594 123.133 166.86 124.04C167.127 124.933 167.26 125.933 167.26 127.04V140H166.5C166.1 140 165.854 139.813 165.76 139.44L165.48 136.88C164.934 137.413 164.387 137.893 163.84 138.32C163.307 138.747 162.747 139.107 162.16 139.4C161.574 139.693 160.94 139.92 160.26 140.08C159.58 140.24 158.834 140.32 158.02 140.32C157.34 140.32 156.68 140.22 156.04 140.02C155.4 139.82 154.827 139.513 154.32 139.1C153.827 138.687 153.427 138.16 153.12 137.52C152.827 136.867 152.68 136.087 152.68 135.18C152.68 134.34 152.92 133.56 153.4 132.84C153.88 132.12 154.634 131.493 155.66 130.96C156.687 130.427 158 130 159.6 129.68C161.214 129.36 163.147 129.173 165.4 129.12V127.04C165.4 125.2 165 123.787 164.2 122.8C163.414 121.8 162.24 121.3 160.68 121.3C159.72 121.3 158.9 121.433 158.22 121.7C157.554 121.967 156.987 122.26 156.52 122.58C156.054 122.9 155.674 123.193 155.38 123.46C155.087 123.727 154.84 123.86 154.64 123.86C154.494 123.86 154.374 123.827 154.28 123.76C154.187 123.693 154.107 123.607 154.04 123.5L153.7 122.92ZM175.455 124.9C175.762 124.087 176.109 123.367 176.495 122.74C176.895 122.1 177.349 121.56 177.855 121.12C178.375 120.68 178.949 120.347 179.575 120.12C180.215 119.88 180.922 119.76 181.695 119.76C182.109 119.76 182.515 119.8 182.915 119.88C183.315 119.947 183.669 120.073 183.975 120.26L183.815 121.58C183.749 121.793 183.622 121.9 183.435 121.9C183.275 121.9 183.029 121.853 182.695 121.76C182.375 121.667 181.949 121.62 181.415 121.62C180.642 121.62 179.955 121.74 179.355 121.98C178.769 122.207 178.235 122.553 177.755 123.02C177.289 123.487 176.875 124.067 176.515 124.76C176.169 125.44 175.849 126.227 175.555 127.12V140H173.635V120.1H174.655C174.882 120.1 175.042 120.147 175.135 120.24C175.229 120.333 175.289 120.493 175.315 120.72L175.455 124.9ZM200.603 128.04C200.603 126.973 200.45 126.02 200.143 125.18C199.85 124.327 199.43 123.607 198.883 123.02C198.337 122.433 197.683 121.987 196.923 121.68C196.177 121.36 195.35 121.2 194.443 121.2C193.417 121.2 192.497 121.36 191.683 121.68C190.87 122 190.163 122.46 189.563 123.06C188.977 123.66 188.503 124.38 188.143 125.22C187.783 126.06 187.543 127 187.423 128.04H200.603ZM187.323 129.26V129.64C187.323 131.133 187.497 132.447 187.843 133.58C188.19 134.713 188.683 135.667 189.323 136.44C189.963 137.2 190.737 137.773 191.643 138.16C192.55 138.547 193.563 138.74 194.683 138.74C195.683 138.74 196.55 138.633 197.283 138.42C198.017 138.193 198.63 137.947 199.123 137.68C199.63 137.4 200.03 137.153 200.323 136.94C200.617 136.713 200.83 136.6 200.963 136.6C201.137 136.6 201.27 136.667 201.363 136.8L201.883 137.44C201.563 137.84 201.137 138.213 200.603 138.56C200.083 138.907 199.497 139.207 198.843 139.46C198.203 139.7 197.51 139.893 196.763 140.04C196.03 140.187 195.29 140.26 194.543 140.26C193.183 140.26 191.943 140.027 190.823 139.56C189.703 139.08 188.743 138.387 187.943 137.48C187.143 136.573 186.523 135.467 186.083 134.16C185.657 132.84 185.443 131.333 185.443 129.64C185.443 128.213 185.643 126.9 186.043 125.7C186.457 124.487 187.043 123.447 187.803 122.58C188.577 121.7 189.517 121.013 190.623 120.52C191.743 120.027 193.01 119.78 194.423 119.78C195.543 119.78 196.583 119.973 197.543 120.36C198.503 120.747 199.337 121.313 200.043 122.06C200.75 122.793 201.303 123.7 201.703 124.78C202.117 125.86 202.323 127.1 202.323 128.5C202.323 128.793 202.283 128.993 202.203 129.1C202.123 129.207 201.99 129.26 201.803 129.26H187.323ZM221.083 124.38C220.323 123.233 219.476 122.427 218.543 121.96C217.623 121.493 216.569 121.26 215.383 121.26C214.209 121.26 213.183 121.473 212.303 121.9C211.423 122.327 210.683 122.933 210.083 123.72C209.496 124.493 209.049 125.427 208.743 126.52C208.449 127.6 208.303 128.793 208.303 130.1C208.303 133.06 208.843 135.24 209.923 136.64C211.016 138.027 212.589 138.72 214.643 138.72C215.949 138.72 217.143 138.38 218.223 137.7C219.303 137.02 220.256 136.067 221.083 134.84V124.38ZM222.983 110.9V140H221.943C221.596 140 221.396 139.827 221.343 139.48L221.143 136.34C220.263 137.54 219.236 138.493 218.063 139.2C216.889 139.907 215.569 140.26 214.103 140.26C211.649 140.26 209.743 139.413 208.383 137.72C207.023 136.027 206.343 133.487 206.343 130.1C206.343 128.647 206.529 127.293 206.903 126.04C207.289 124.773 207.849 123.68 208.583 122.76C209.316 121.827 210.216 121.093 211.283 120.56C212.363 120.027 213.603 119.76 215.003 119.76C216.349 119.76 217.516 120.007 218.503 120.5C219.489 120.993 220.349 121.727 221.083 122.7V110.9H222.983Z" fill="white"/>
</g>
<defs>
<filter id="filter0_d_351_1247" x="0" y="0" width="208.8" height="208.8" filterUnits="userSpaceOnUse" color-interpolation-filters="sRGB">
<feFlood flood-opacity="0" result="BackgroundImageFix"/>
<feColorMatrix in="SourceAlpha" type="matrix" values="0 0 0 0 0 0 0 0 0 0 0 0 0 0 0 0 0 0 127 0" result="hardAlpha"/>
<feOffset dy="4"/>
<feGaussianBlur stdDeviation="2"/>
<feComposite in2="hardAlpha" operator="out"/>
<feColorMatrix type="matrix" values="0 0 0 0 0 0 0 0 0 0 0 0 0 0 0 0 0 0 0.25 0"/>
<feBlend mode="normal" in2="BackgroundImageFix" result="effect1_dropShadow_351_1247"/>
<feBlend mode="normal" in="SourceGraphic" in2="effect1_dropShadow_351_1247" result="shape"/>
</filter>
<filter id="filter1_d_351_1247" x="102" y="0" width="208.8" height="208.8" filterUnits="userSpaceOnUse" color-interpolation-filters="sRGB">
<feFlood flood-opacity="0" result="BackgroundImageFix"/>
<feColorMatrix in="SourceAlpha" type="matrix" values="0 0 0 0 0 0 0 0 0 0 0 0 0 0 0 0 0 0 127 0" result="hardAlpha"/>
<feOffset dy="4"/>
<feGaussianBlur stdDeviation="2"/>
<feComposite in2="hardAlpha" operator="out"/>
<feColorMatrix type="matrix" values="0 0 0 0 0 0 0 0 0 0 0 0 0 0 0 0 0 0 0.25 0"/>
<feBlend mode="normal" in2="BackgroundImageFix" result="effect1_dropShadow_351_1247"/>
<feBlend mode="normal" in="SourceGraphic" in2="effect1_dropShadow_351_1247" result="shape"/>
</filter>
<filter id="filter2_d_351_1247" x="83.5261" y="56.4449" width="145.869" height="98.595" filterUnits="userSpaceOnUse" color-interpolation-filters="sRGB">
<feFlood flood-opacity="0" result="BackgroundImageFix"/>
<feColorMatrix in="SourceAlpha" type="matrix" values="0 0 0 0 0 0 0 0 0 0 0 0 0 0 0 0 0 0 127 0" result="hardAlpha"/>
<feOffset dy="4"/>
<feGaussianBlur stdDeviation="2"/>
<feComposite in2="hardAlpha" operator="out"/>
<feColorMatrix type="matrix" values="0 0 0 0 0 0 0 0 0 0 0 0 0 0 0 0 0 0 0.25 0"/>
<feBlend mode="normal" in2="BackgroundImageFix" result="effect1_dropShadow_351_1247"/>
<feBlend mode="normal" in="SourceGraphic" in2="effect1_dropShadow_351_1247" result="shape"/>
</filter>
</defs>
</svg>
