<svg width="160" height="63" viewBox="0 0 160 63" fill="none" xmlns="http://www.w3.org/2000/svg">
<path d="M65.3042 15.9256H75.8959V18.6195H68.45V21.7621H74.8475V24.456H68.45V27.8984H75.8959V30.5706H65.3042V15.9248V15.9256Z" fill="#001517"/>
<path d="M78.9659 15.9255H84.7217C88.6159 15.9255 91.7825 18.2347 91.7825 23.2592C91.7825 27.5569 88.6159 30.5713 84.7217 30.5713H78.9659V15.9255ZM84.3792 27.5777C86.6259 27.5777 88.5942 25.9739 88.5942 23.2584C88.5942 20.3081 86.6259 18.9183 84.3792 18.9183H82.1109V27.5777H84.3792Z" fill="#001517"/>
<path d="M93.6783 23.2593C93.6783 19.1757 96.8875 15.605 101.296 15.605C103.778 15.605 105.575 16.6309 106.902 18.0848L104.783 20.244C104.056 19.4313 102.965 18.6194 101.296 18.6194C98.5567 18.6194 96.6958 20.8861 96.6958 23.2593C96.6958 25.7824 98.7075 27.92 101.296 27.92C102.815 27.92 104.035 27.2996 104.762 26.3162L106.902 28.4329C105.575 29.9934 103.649 30.9344 101.296 30.9344C96.8883 30.9344 93.6783 27.3213 93.6783 23.2585V23.2593Z" fill="#001517"/>
<path d="M65.0475 43.3986C67.7225 44.9166 71.6167 45.537 71.6167 43.6767C71.6167 42.0521 64.1067 42.7357 64.32 38.3956C64.5984 34.6109 70.2259 33.9056 74.4617 36.7069L73.2417 38.7595C70.9734 37.0066 67.5075 37.1349 67.4434 38.5671C67.3792 40.1493 74.7184 39.7862 74.7184 43.5493C74.7184 47.3123 70.5034 49.0868 63.9984 45.88L65.0467 43.4002L65.0475 43.3986Z" fill="#001517"/>
<path d="M76.135 41.539C76.135 38.2465 78.8092 35.5735 82.0833 35.5735C85.3575 35.5735 88.0317 38.2457 88.0317 41.539V50.9254H85.0358V46.0932C84.3725 46.9267 83.2817 47.4613 82.0833 47.4613C78.81 47.4613 76.135 44.8099 76.135 41.539ZM79.1308 41.539C79.1308 43.1637 80.4575 44.4685 82.0833 44.4685C83.7092 44.4685 85.0358 43.1645 85.0358 41.539C85.0358 39.9136 83.7092 38.5671 82.0833 38.5671C80.4575 38.5671 79.1308 39.8928 79.1308 41.539Z" fill="#001517"/>
<path d="M90.4217 41.4107V35.5093H93.4175V41.4107C93.4175 43.0995 94.5084 44.1687 96.1134 44.1687C97.7184 44.1687 98.8092 43.0995 98.8092 41.4107V35.5093H101.805V41.4107C101.805 44.789 99.3442 47.1623 96.1134 47.1623C92.8825 47.1623 90.4217 44.789 90.4217 41.4107Z" fill="#001517"/>
<path d="M103.727 41.1534C103.727 37.9033 106.38 35.252 109.653 35.252C112.927 35.252 115.559 37.9033 115.559 41.1534V47.1614H112.563V45.75C111.9 46.5411 110.852 47.0757 109.653 47.0757C106.38 47.0757 103.727 44.4243 103.727 41.1534ZM112.563 41.1534C112.563 39.5496 111.258 38.2456 109.653 38.2456C108.048 38.2456 106.722 39.5496 106.722 41.1534C106.722 42.7572 108.027 44.0829 109.653 44.0829C111.28 44.0829 112.563 42.7789 112.563 41.1534Z" fill="#001517"/>
<path d="M118.428 35.5093H121.274V36.835C121.809 35.8091 123.457 35.4452 124.826 35.5093V38.5029C123.092 38.204 121.423 39.294 121.423 41.0902V46.9483H118.427V35.5093H118.428Z" fill="#001517"/>
<path d="M126.084 41.1534C126.084 38.0749 128.117 35.167 131.604 35.1879C135.413 35.2095 138.066 38.2023 136.996 42.4791H129.358C129.508 43.505 130.727 44.4893 132.182 44.4893C132.973 44.5109 134.343 44.147 134.728 43.6124L136.996 45.3445C135.841 46.6485 133.979 47.1614 131.882 47.1614C128.415 47.1614 126.083 44.1037 126.083 41.1534H126.084ZM134.065 39.8919C134.172 39.1224 133.552 37.8176 131.712 37.8176C130.128 37.8176 129.337 38.9725 129.337 39.8919H134.065Z" fill="#001517"/>
<path d="M138.841 41.3676C138.841 38.0967 141.515 35.4236 144.789 35.4236C145.987 35.4236 147.078 35.9799 147.742 36.7918V31.9812H150.737V42.0512C150.737 43.2911 151.443 43.8474 152 43.8474V46.9476C150.802 46.9476 149.711 46.7977 148.94 45.3654C147.956 46.6053 146.672 47.3115 144.789 47.3115C141.516 47.3115 138.841 44.6601 138.841 41.3676ZM147.742 41.3676C147.742 39.7429 146.437 38.4172 144.789 38.4172C143.142 38.4172 141.837 39.7429 141.837 41.3676C141.837 42.9922 143.163 44.3179 144.789 44.3179C146.415 44.3179 147.742 43.0138 147.742 41.3676Z" fill="#001517"/>
<path d="M14.1158 16.4677C14.1158 16.0205 13.5533 15.8282 13.2742 16.1771C9.975 20.304 8 25.5343 8 31.2267C8 36.9191 9.975 42.1494 13.2742 46.2763C13.5533 46.6253 14.1158 46.4329 14.1158 45.9857V16.4677Z" fill="#BB3E03"/>
<path d="M50.2092 45.9733C50.2092 46.4205 50.7725 46.6129 51.0508 46.2639C54.3442 42.1387 56.315 36.9142 56.315 31.2268C56.315 25.5394 54.3442 20.3149 51.0508 16.1897C50.7717 15.8399 50.2092 16.0331 50.2092 16.4803V45.9733Z" fill="#0D9396"/>
<path d="M45.7725 26.4362V11.539C45.7725 11.3816 45.695 11.2334 45.5642 11.1459C43.935 10.0584 42.1658 9.16492 40.29 8.49542C39.9817 8.3855 39.6567 8.61117 39.6567 8.93759V23.008H39.6908L43.4233 26.7377C43.6075 26.9217 43.6075 27.219 43.4233 27.403L40.0242 30.7997C39.84 30.9837 39.84 31.281 40.0242 31.465L43.4233 34.8616C43.6075 35.0457 43.6075 35.3429 43.4233 35.527L39.6908 39.2567H39.6567V53.5169C39.6567 53.8433 39.9817 54.069 40.29 53.9591C42.1658 53.2896 43.935 52.3961 45.5642 51.3086C45.695 51.2211 45.7725 51.0729 45.7725 50.9155V35.8276C45.7725 35.7027 45.8225 35.5836 45.91 35.4953L49.9433 31.465C50.1275 31.281 50.1275 30.9837 49.9433 30.7997L45.91 26.7693C45.8217 26.6811 45.7725 26.5611 45.7725 26.4371V26.4362Z" fill="url(#paint0_linear_655_2098)"/>
<path d="M24.8058 19.448L28.4 15.8565C28.5842 15.6725 28.5842 15.3752 28.4 15.1912L24.8058 11.5997C24.7175 11.5114 24.6683 11.3915 24.6683 11.2674V8.93417C24.6683 8.60775 24.3433 8.38208 24.0358 8.492C22.16 9.16067 20.3908 10.0525 18.7617 11.1392C18.6308 11.2266 18.5525 11.3749 18.5525 11.5322V50.9221C18.5525 51.0795 18.63 51.2277 18.7617 51.3151C20.3908 52.4018 22.16 53.2937 24.0358 53.9623C24.3442 54.0723 24.6683 53.8466 24.6683 53.5202V50.997C24.6683 50.8721 24.7183 50.7531 24.8058 50.6648L28.4 47.0733C28.5842 46.8893 28.5842 46.592 28.4 46.408L24.8058 42.8165C24.7175 42.7282 24.6683 42.6083 24.6683 42.4842V19.7803C24.6683 19.6554 24.7183 19.5363 24.8058 19.448Z" fill="url(#paint1_linear_655_2098)"/>
<path d="M35.3584 27.1673L38.9525 23.5758C39.1367 23.3918 39.1367 23.0945 38.9525 22.9105L35.3584 19.319C35.27 19.2307 35.2209 19.1108 35.2209 18.9867V7.70597C35.2209 7.46698 35.0425 7.26379 34.8042 7.23715C33.935 7.14055 33.0525 7.08643 32.1575 7.08643C31.2625 7.08643 30.3875 7.14055 29.5209 7.23548C29.2834 7.26213 29.1042 7.46531 29.1042 7.7043V16.0331H29.1759L32.9084 19.7628C33.0925 19.9469 33.0925 20.2441 32.9084 20.4282L29.1759 24.1579H29.1042V38.105H29.1759L32.9084 41.8347C33.0925 42.0188 33.0925 42.316 32.9084 42.5001L29.1759 46.2298H29.1042V54.7493C29.1042 54.9883 29.2834 55.1915 29.5209 55.2181C30.3867 55.3139 31.2659 55.3672 32.1575 55.3672C33.0492 55.3672 33.9342 55.313 34.8042 55.2165C35.0417 55.1898 35.2209 54.9866 35.2209 54.7476V43.2778C35.2209 43.1529 35.27 43.0338 35.3584 42.9456L38.9525 39.3541C39.1367 39.1701 39.1367 38.8728 38.9525 38.6887L35.3584 35.0973C35.27 35.009 35.2209 34.8891 35.2209 34.765V27.5012C35.2209 27.3763 35.27 27.2572 35.3584 27.169V27.1673Z" fill="url(#paint2_linear_655_2098)"/>
<defs>
<linearGradient id="paint0_linear_655_2098" x1="44.8692" y1="53.9866" x2="44.8692" y2="8.46711" gradientUnits="userSpaceOnUse">
<stop stop-color="#0D9396"/>
<stop offset="0.07" stop-color="#129597"/>
<stop offset="0.16" stop-color="#229D9C"/>
<stop offset="0.27" stop-color="#3CA9A3"/>
<stop offset="0.38" stop-color="#60BAAE"/>
<stop offset="0.49" stop-color="#8FD0BB"/>
<stop offset="0.5" stop-color="#93D2BD"/>
<stop offset="0.67" stop-color="#62BBAE"/>
<stop offset="0.89" stop-color="#259E9C"/>
<stop offset="1" stop-color="#0D9396"/>
</linearGradient>
<linearGradient id="paint1_linear_655_2098" x1="23.545" y1="53.9898" x2="23.545" y2="8.46369" gradientUnits="userSpaceOnUse">
<stop stop-color="#BB3E03"/>
<stop offset="0.5" stop-color="#EE9B00"/>
<stop offset="0.58" stop-color="#E28600"/>
<stop offset="0.77" stop-color="#CD5F01"/>
<stop offset="0.91" stop-color="#BF4602"/>
<stop offset="1" stop-color="#BB3E03"/>
</linearGradient>
<linearGradient id="paint2_linear_655_2098" x1="34.0975" y1="55.3663" x2="34.0975" y2="7.08726" gradientUnits="userSpaceOnUse">
<stop stop-color="#EE9B00"/>
<stop offset="0.5" stop-color="#E8D8A8"/>
<stop offset="0.59" stop-color="#E9C97F"/>
<stop offset="0.73" stop-color="#EBB549"/>
<stop offset="0.85" stop-color="#ECA721"/>
<stop offset="0.94" stop-color="#ED9E08"/>
<stop offset="1" stop-color="#EE9B00"/>
</linearGradient>
</defs>
</svg>
