<svg width="25" height="24" viewBox="0 0 25 24" fill="none" xmlns="http://www.w3.org/2000/svg">
<path d="M4.21563 11.4656L8.15313 7.52813C8.29709 7.39051 8.48834 7.31334 8.6875 7.3125C8.78407 7.31225 8.87971 7.33138 8.96875 7.36875C9.107 7.42468 9.22545 7.52055 9.30894 7.64413C9.39244 7.7677 9.4372 7.91336 9.4375 8.0625V11.25L15.25 11.25C15.4489 11.25 15.6397 11.329 15.7803 11.4697C15.921 11.6103 16 11.8011 16 12C16 12.1989 15.921 12.3897 15.7803 12.5303C15.6397 12.671 15.4489 12.75 15.25 12.75L9.4375 12.75L9.4375 15.9375C9.4372 16.0866 9.39244 16.2323 9.30894 16.3559C9.22545 16.4794 9.107 16.5753 8.96875 16.6313C8.83182 16.6856 8.68215 16.6995 8.53755 16.6713C8.39294 16.643 8.25951 16.5738 8.15313 16.4719L4.21563 12.5344C4.07479 12.3922 3.99578 12.2001 3.99578 12C3.99578 11.7999 4.07479 11.6078 4.21563 11.4656ZM15.25 4.5H20.5L20.5 19.5H15.25C15.0511 19.5 14.8603 19.579 14.7197 19.7197C14.579 19.8603 14.5 20.0511 14.5 20.25C14.5 20.4489 14.579 20.6397 14.7197 20.7803C14.8603 20.921 15.0511 21 15.25 21H20.5C20.8978 21 21.2794 20.842 21.5607 20.5607C21.842 20.2794 22 19.8978 22 19.5L22 4.5C22 4.10217 21.842 3.72064 21.5607 3.43934C21.2794 3.15804 20.8978 3 20.5 3H15.25C15.0511 3 14.8603 3.07902 14.7197 3.21967C14.579 3.36032 14.5 3.55109 14.5 3.75C14.5 3.94891 14.579 4.13968 14.7197 4.28033C14.8603 4.42098 15.0511 4.5 15.25 4.5Z" fill="white"/>
</svg>
