<svg width="16" height="17" viewBox="0 0 16 17" fill="none" xmlns="http://www.w3.org/2000/svg">
<path id="Vector" opacity="0.3" fill-rule="evenodd" clip-rule="evenodd" d="M16 8.375C16 10.4967 15.1571 12.5316 13.6569 14.0319C12.1566 15.5321 10.1217 16.375 8 16.375C5.87827 16.375 3.84344 15.5321 2.34315 14.0319C0.842855 12.5316 0 10.4967 0 8.375C0 6.25327 0.842855 4.21844 2.34315 2.71815C3.84344 1.21785 5.87827 0.375 8 0.375C10.1217 0.375 12.1566 1.21785 13.6569 2.71815C15.1571 4.21844 16 6.25327 16 8.375ZM8 5.375C7.8243 5.37483 7.65165 5.42095 7.49945 5.50873C7.34724 5.59651 7.22085 5.72284 7.133 5.875C7.06957 5.99288 6.98311 6.09682 6.87876 6.18066C6.77441 6.2645 6.65429 6.32654 6.52552 6.3631C6.39675 6.39966 6.26194 6.40999 6.12911 6.39349C5.99627 6.37698 5.86809 6.33397 5.75218 6.26701C5.63628 6.20005 5.53499 6.1105 5.45433 6.00367C5.37367 5.89684 5.31529 5.7749 5.28263 5.64508C5.24997 5.51527 5.24371 5.38022 5.26421 5.24794C5.28472 5.11565 5.33157 4.98884 5.402 4.875C5.73222 4.30311 6.24191 3.85616 6.85203 3.60346C7.46214 3.35076 8.13859 3.30644 8.77647 3.47736C9.41434 3.64828 9.978 4.02489 10.38 4.5488C10.782 5.0727 11 5.71462 11 6.375C11.0002 6.99562 10.8079 7.60103 10.4498 8.10785C10.0916 8.61468 9.58508 8.99799 9 9.205V9.375C9 9.64022 8.89464 9.89457 8.70711 10.0821C8.51957 10.2696 8.26522 10.375 8 10.375C7.73478 10.375 7.48043 10.2696 7.29289 10.0821C7.10536 9.89457 7 9.64022 7 9.375V8.375C7 8.10978 7.10536 7.85543 7.29289 7.66789C7.48043 7.48036 7.73478 7.375 8 7.375C8.26522 7.375 8.51957 7.26964 8.70711 7.08211C8.89464 6.89457 9 6.64022 9 6.375C9 6.10978 8.89464 5.85543 8.70711 5.66789C8.51957 5.48036 8.26522 5.375 8 5.375ZM8 13.375C8.26522 13.375 8.51957 13.2696 8.70711 13.0821C8.89464 12.8946 9 12.6402 9 12.375C9 12.1098 8.89464 11.8554 8.70711 11.6679C8.51957 11.4804 8.26522 11.375 8 11.375C7.73478 11.375 7.48043 11.4804 7.29289 11.6679C7.10536 11.8554 7 12.1098 7 12.375C7 12.6402 7.10536 12.8946 7.29289 13.0821C7.48043 13.2696 7.73478 13.375 8 13.375Z" fill="black"/>
</svg>
