<svg width="32" height="31" viewBox="0 0 32 31" fill="none" xmlns="http://www.w3.org/2000/svg">
<path d="M23.8188 5.84106C22.8083 5.84106 21.9975 6.62608 21.9975 7.60451C21.9975 8.58294 22.8083 9.36796 23.8188 9.36796C24.8293 9.36796 25.6401 8.58294 25.6401 7.60451C25.6401 6.62608 24.8293 5.84106 23.8188 5.84106Z" fill="#3E3E36"/>
<path d="M15.7229 8.09375C11.5045 8.09375 8.08521 11.4159 8.08521 15.4888C8.08521 19.5618 11.5163 22.8839 15.7229 22.8839C19.9294 22.8839 23.3605 19.5618 23.3605 15.4888C23.3605 11.4159 19.9294 8.09375 15.7229 8.09375ZM15.7229 20.2331C13.0203 20.2331 10.823 18.1056 10.823 15.4888C10.823 12.8721 13.0203 10.7446 15.7229 10.7446C18.4254 10.7446 20.6227 12.8721 20.6227 15.4888C20.6227 18.1056 18.4254 20.2331 15.7229 20.2331Z" fill="#3E3E36"/>
<path d="M21.7977 30.5292H9.40124C4.26639 30.5292 0.083313 26.4789 0.083313 21.5071V9.50434C0.083313 4.52118 4.26639 0.470947 9.40124 0.470947H21.7977C26.9326 0.470947 31.1157 4.52118 31.1157 9.49296V21.4958C31.1157 26.4676 26.9326 30.5178 21.7977 30.5178V30.5292ZM9.40124 3.30384C5.87617 3.30384 2.99737 6.07984 2.99737 9.50434V21.5071C2.99737 24.9203 5.86442 27.7077 9.40124 27.7077H21.7977C25.3228 27.7077 28.2016 24.9316 28.2016 21.5071V9.50434C28.2016 6.09122 25.3345 3.30384 21.7977 3.30384H9.40124Z" fill="#3E3E36"/>
</svg>
