<svg width="22" height="21" viewBox="0 0 22 21" fill="none" xmlns="http://www.w3.org/2000/svg">
<path d="M16.2757 4.37671C15.5828 4.37671 15.0269 4.91501 15.0269 5.58593C15.0269 6.25685 15.5828 6.79515 16.2757 6.79515C16.9687 6.79515 17.5246 6.25685 17.5246 5.58593C17.5246 4.91501 16.9687 4.37671 16.2757 4.37671Z" fill="#3E3E36"/>
<path d="M10.7243 5.92139C7.83173 5.92139 5.48706 8.1994 5.48706 10.9923C5.48706 13.7852 7.83979 16.0632 10.7243 16.0632C13.6088 16.0632 15.9615 13.7852 15.9615 10.9923C15.9615 8.1994 13.6088 5.92139 10.7243 5.92139ZM10.7243 14.2455C8.87113 14.2455 7.36441 12.7866 7.36441 10.9923C7.36441 9.19798 8.87113 7.73912 10.7243 7.73912C12.5775 7.73912 14.0842 9.19798 14.0842 10.9923C14.0842 12.7866 12.5775 14.2455 10.7243 14.2455Z" fill="#3E3E36"/>
<path d="M14.8899 21.3057H6.38944C2.8684 21.3057 0 18.5284 0 15.1192V6.88866C0 3.47164 2.8684 0.694336 6.38944 0.694336H14.8899C18.4109 0.694336 21.2793 3.47164 21.2793 6.88086V15.1114C21.2793 18.5206 18.4109 21.2979 14.8899 21.2979V21.3057ZM6.38944 2.63689C3.97225 2.63689 1.99821 4.54044 1.99821 6.88866V15.1192C1.99821 17.4596 3.96419 19.3709 6.38944 19.3709H14.8899C17.3071 19.3709 19.2811 17.4674 19.2811 15.1192V6.88866C19.2811 4.54824 17.3151 2.63689 14.8899 2.63689H6.38944Z" fill="#3E3E36"/>
</svg>
