<svg width="22" height="22" viewBox="0 0 22 22" fill="none" xmlns="http://www.w3.org/2000/svg">
<path d="M16.2757 4.37659C15.5828 4.37659 15.0269 4.91489 15.0269 5.58581C15.0269 6.25674 15.5828 6.79503 16.2757 6.79503C16.9687 6.79503 17.5246 6.25674 17.5246 5.58581C17.5246 4.91489 16.9687 4.37659 16.2757 4.37659Z" fill="#E7D7A7"/>
<path d="M10.7241 5.92128C7.83149 5.92128 5.48682 8.19929 5.48682 10.9922C5.48682 13.7851 7.83955 16.0631 10.7241 16.0631C13.6086 16.0631 15.9613 13.7851 15.9613 10.9922C15.9613 8.19929 13.6086 5.92128 10.7241 5.92128ZM10.7241 14.2454C8.87088 14.2454 7.36417 12.7865 7.36417 10.9922C7.36417 9.19788 8.87088 7.73901 10.7241 7.73901C12.5772 7.73901 14.084 9.19788 14.084 10.9922C14.084 12.7865 12.5772 14.2454 10.7241 14.2454Z" fill="#E7D7A7"/>
<path d="M14.8899 21.3057H6.38944C2.8684 21.3057 0 18.5284 0 15.1192V6.88865C0 3.47163 2.8684 0.694328 6.38944 0.694328H14.8899C18.4109 0.694328 21.2793 3.47163 21.2793 6.88085V15.1114C21.2793 18.5206 18.4109 21.2979 14.8899 21.2979V21.3057ZM6.38944 2.63688C3.97225 2.63688 1.99821 4.54043 1.99821 6.88865V15.1192C1.99821 17.4596 3.96419 19.3709 6.38944 19.3709H14.8899C17.3071 19.3709 19.2811 17.4674 19.2811 15.1192V6.88865C19.2811 4.54823 17.3151 2.63688 14.8899 2.63688H6.38944Z" fill="#E7D7A7"/>
</svg>
