<svg width="20" height="22" viewBox="0 0 20 22" fill="none" xmlns="http://www.w3.org/2000/svg">
<path d="M19.9999 8.90142C19.8145 8.91702 19.6292 8.92482 19.4439 8.93262C17.3974 8.93262 15.4878 7.93404 14.3678 6.28014V15.322C14.3678 19.0121 11.2738 22.0078 7.46272 22.0078C3.65162 22.0078 0.557617 19.0121 0.557617 15.322C0.557617 11.6319 3.65162 8.63617 7.46272 8.63617C7.60775 8.63617 7.74472 8.65177 7.88976 8.65957V11.9518C7.74472 11.9362 7.60775 11.9128 7.46272 11.9128C5.52091 11.9128 3.94168 13.4418 3.94168 15.322C3.94168 17.2021 5.52091 18.7312 7.46272 18.7312C9.40453 18.7312 11.1288 17.2489 11.1288 15.361L11.161 0H14.4162C14.7223 2.82411 17.0751 5.03191 19.9999 5.24255V8.90142Z" fill="#E7D7A7"/>
</svg>
