<svg width="20" height="22" viewBox="0 0 20 22" fill="none" xmlns="http://www.w3.org/2000/svg">
<path d="M20.0008 8.90142C19.8155 8.91702 19.6302 8.92482 19.4449 8.93262C17.3983 8.93262 15.4888 7.93404 14.3688 6.28014V15.322C14.3688 19.0121 11.2748 22.0078 7.4637 22.0078C3.6526 22.0078 0.558594 19.0121 0.558594 15.322C0.558594 11.6319 3.6526 8.63617 7.4637 8.63617C7.60873 8.63617 7.7457 8.65177 7.89073 8.65957V11.9518C7.7457 11.9362 7.60873 11.9128 7.4637 11.9128C5.52189 11.9128 3.94266 13.4418 3.94266 15.322C3.94266 17.2021 5.52189 18.7312 7.4637 18.7312C9.40551 18.7312 11.1298 17.2489 11.1298 15.361L11.162 0H14.4171C14.7233 2.82411 17.076 5.03191 20.0008 5.24255V8.90142Z" fill="#3E3E36"/>
</svg>
