<svg width="22" height="21" viewBox="0 0 22 21" fill="none" xmlns="http://www.w3.org/2000/svg">
<path d="M16.2762 4.37695C15.5833 4.37695 15.0273 4.91525 15.0273 5.58617C15.0273 6.25709 15.5833 6.79539 16.2762 6.79539C16.9692 6.79539 17.5251 6.25709 17.5251 5.58617C17.5251 4.91525 16.9692 4.37695 16.2762 4.37695Z" fill="#3E3E36"/>
<path d="M10.7236 5.9209C7.831 5.9209 5.48633 8.19891 5.48633 10.9918C5.48633 13.7847 7.83906 16.0627 10.7236 16.0627C13.6081 16.0627 15.9608 13.7847 15.9608 10.9918C15.9608 8.19891 13.6081 5.9209 10.7236 5.9209ZM10.7236 14.245C8.87039 14.245 7.36368 12.7861 7.36368 10.9918C7.36368 9.19749 8.87039 7.73863 10.7236 7.73863C12.5767 7.73863 14.0835 9.19749 14.0835 10.9918C14.0835 12.7861 12.5767 14.245 10.7236 14.245Z" fill="#3E3E36"/>
<path d="M14.8899 21.3057H6.38944C2.8684 21.3057 0 18.5284 0 15.1192V6.88866C0 3.47164 2.8684 0.694336 6.38944 0.694336H14.8899C18.4109 0.694336 21.2793 3.47164 21.2793 6.88086V15.1114C21.2793 18.5206 18.4109 21.2979 14.8899 21.2979V21.3057ZM6.38944 2.63689C3.97225 2.63689 1.99821 4.54044 1.99821 6.88866V15.1192C1.99821 17.4596 3.96419 19.3709 6.38944 19.3709H14.8899C17.3071 19.3709 19.2811 17.4674 19.2811 15.1192V6.88866C19.2811 4.54824 17.3151 2.63689 14.8899 2.63689H6.38944Z" fill="#3E3E36"/>
</svg>
