<svg width="21" height="16" viewBox="0 0 21 16" fill="none" xmlns="http://www.w3.org/2000/svg">
<path d="M20.5792 2.00071C19.9508 2.27376 19.2578 2.44539 18.581 2.55461C18.9033 2.5 19.3787 1.9383 19.564 1.71206C19.8541 1.36099 20.0958 0.970922 20.2247 0.541844C20.2408 0.510638 20.257 0.46383 20.2247 0.440425C20.1844 0.424822 20.1522 0.432624 20.12 0.448227C19.3626 0.838298 18.581 1.12695 17.7431 1.32979C17.6706 1.34539 17.6222 1.32979 17.5819 1.29078C17.5094 1.21277 17.445 1.14255 17.3724 1.08794C17.026 0.79929 16.6473 0.573049 16.2202 0.40922C15.6643 0.19078 15.0519 0.097163 14.4557 0.13617C13.8756 0.175177 13.3035 0.331206 12.7798 0.596454C12.2641 0.861702 11.7968 1.22057 11.4262 1.66525C11.0475 2.11773 10.7655 2.65603 10.6204 3.22553C10.4835 3.77943 10.4915 4.31773 10.5801 4.87943C10.5963 4.97305 10.5801 4.98085 10.4996 4.97305C7.23636 4.50496 4.53717 3.37376 2.34558 0.955319C2.2489 0.853901 2.20055 0.8539 2.11998 0.96312C1.16116 2.35957 1.62848 4.59078 2.82096 5.69078C2.98211 5.83901 3.14326 5.98723 3.32052 6.11986C3.25606 6.13546 2.45838 6.04965 1.74934 5.69078C1.65265 5.63617 1.60431 5.66737 1.59625 5.76879C1.5882 5.91702 1.59625 6.05745 1.62043 6.22128C1.80574 7.63333 2.81291 8.93617 4.19876 9.45106C4.35991 9.52128 4.54523 9.57589 4.72249 9.60709C4.40825 9.6773 4.08596 9.72411 3.17548 9.6539C3.06268 9.6305 3.0224 9.68511 3.06268 9.79433C3.7395 11.5887 5.20592 12.1191 6.30977 12.4234C6.4548 12.4468 6.59984 12.4468 6.75293 12.478C6.74487 12.4936 6.73681 12.4936 6.72875 12.5014C6.36617 13.0397 5.10118 13.4376 4.513 13.6404C3.44138 13.9993 2.28113 14.1631 1.1531 14.0539C0.975844 14.0305 0.935556 14.0305 0.887212 14.0539C0.838868 14.0851 0.887213 14.1241 0.935557 14.1709C1.16116 14.3191 1.39482 14.444 1.63654 14.5766C2.35364 14.9433 3.10297 15.2397 3.88453 15.4504C7.92929 16.5348 12.4736 15.739 15.5112 12.8213C17.8962 10.5277 18.7261 7.36808 18.7261 4.20071C18.7261 4.07589 18.8792 4.00567 18.9678 3.94326C19.5882 3.49078 20.0878 2.95248 20.547 2.35177C20.6518 2.21915 20.6518 2.09433 20.6518 2.04752V2.03191C20.6518 1.98511 20.6518 1.99291 20.5712 2.03191L20.5792 2.00071Z" fill="#E7D7A7"/>
</svg>
