<svg width="24" height="24" viewBox="0 0 24 24" fill="none" xmlns="http://www.w3.org/2000/svg">
<g clip-path="url(#clip0_414_3767)">
<path d="M12.795 9.08249L13.8563 10.1437C14.3438 10.6313 14.7306 11.21 14.9945 11.847C15.2583 12.484 15.3941 13.1668 15.3941 13.8562C15.3941 14.5457 15.2583 15.2285 14.9945 15.8655C14.7306 16.5024 14.3438 17.0812 13.8563 17.5687L13.5908 17.8335C12.6061 18.8181 11.2707 19.3713 9.87826 19.3713C8.4858 19.3713 7.15037 18.8181 6.16576 17.8335C5.18114 16.8489 4.62799 15.5134 4.62799 14.121C4.62799 12.7285 5.18114 11.3931 6.16576 10.4085L7.22701 11.4697C6.87629 11.8174 6.59769 12.2309 6.4072 12.6865C6.21672 13.1422 6.11811 13.6309 6.11703 14.1248C6.11595 14.6186 6.21242 15.1078 6.4009 15.5642C6.58939 16.0207 6.86617 16.4354 7.21537 16.7846C7.56457 17.1338 7.9793 17.4106 8.43575 17.5991C8.89221 17.7876 9.38139 17.8841 9.87523 17.883C10.3691 17.8819 10.8578 17.7833 11.3135 17.5928C11.7691 17.4023 12.1826 17.1237 12.5303 16.773L12.7958 16.5075C13.4988 15.8043 13.8937 14.8506 13.8937 13.8562C13.8937 12.8619 13.4988 11.9082 12.7958 11.205L11.7345 10.1437L12.7958 9.08324L12.795 9.08249ZM17.8335 13.5907L16.773 12.5302C17.1237 12.1826 17.4023 11.7691 17.5928 11.3134C17.7833 10.8578 17.8819 10.3691 17.883 9.87521C17.8841 9.38138 17.7876 8.89219 17.5991 8.43573C17.4106 7.97928 17.1338 7.56455 16.7846 7.21535C16.4354 6.86616 16.0207 6.58937 15.5643 6.40089C15.1078 6.2124 14.6186 6.11593 14.1248 6.11701C13.6309 6.11809 13.1422 6.21671 12.6866 6.40719C12.2309 6.59767 11.8174 6.87627 11.4698 7.22699L11.2043 7.49249C10.5012 8.19572 10.1063 9.14937 10.1063 10.1437C10.1063 11.1381 10.5012 12.0918 11.2043 12.795L12.2655 13.8562L11.2043 14.9167L10.1438 13.8562C9.65619 13.3687 9.26943 12.7899 9.00556 12.153C8.74169 11.516 8.60588 10.8332 8.60588 10.1437C8.60588 9.45426 8.74169 8.77152 9.00556 8.13453C9.26943 7.49754 9.65619 6.91876 10.1438 6.43124L10.4093 6.16649C11.3939 5.18187 12.7293 4.62872 14.1218 4.62872C15.5142 4.62872 16.8496 5.18187 17.8343 6.16649C18.8189 7.15111 19.372 8.48653 19.372 9.87899C19.372 11.2714 18.8189 12.6069 17.8343 13.5915L17.8335 13.5907Z" fill="#0A9396"/>
</g>
<defs>
<clipPath id="clip0_414_3767">
<rect width="18" height="18" fill="white" transform="translate(3 3)"/>
</clipPath>
</defs>
</svg>
