<svg width="569" height="187" viewBox="0 0 569 187" fill="none" xmlns="http://www.w3.org/2000/svg">
<path fill-rule="evenodd" clip-rule="evenodd" d="M85.109 87.4536C84.8064 90.8984 83.6519 94.2846 81.6454 97.2827L43.0504 154.949C42.727 153.456 42.5545 151.875 42.5545 150.214L42.5545 21.0163C42.5545 19.3548 42.727 17.7741 43.0504 16.2807L81.6453 73.9472C83.6519 76.9452 84.8064 80.3315 85.109 83.7763L85.109 87.4536ZM85.6049 154.949L80.9654 161.881C70.3562 177.733 46.7631 172.095 43.0504 154.949L38.4109 161.881C26.8776 179.114 -1.91091e-06 170.949 0 150.214L4.05734e-06 21.0163C4.88275e-06 0.280492 26.8776 -7.88388 38.4109 9.34855L43.0504 16.2807C46.7631 -0.864796 70.3562 -6.50314 80.9654 9.34855L85.6049 16.2807C85.2815 17.7741 85.109 19.3548 85.109 21.0163V83.7763C85.2164 84.9996 85.2164 86.2303 85.109 87.4536V150.214C85.109 151.875 85.2815 153.456 85.6049 154.949ZM85.6049 154.949L124.2 97.2827C128.925 90.2219 128.925 81.0079 124.2 73.9472L85.6049 16.2807C89.3176 -0.864795 112.911 -6.50314 123.52 9.34855L166.754 73.9472C171.48 81.0079 171.48 90.2219 166.754 97.2827L123.52 161.881C112.911 177.733 89.3176 172.095 85.6049 154.949Z" fill="white"/>
<path d="M195.159 100.924V44.0161H236.34V51.9487H204.377V68.3313H229.362V76.0915H204.377V92.9914H237.546V100.924H195.159Z" fill="white"/>
<path d="M265.696 44.0161C274.599 44.0161 281.52 46.4878 286.459 51.4314C291.456 56.3174 293.954 63.3303 293.954 72.4701C293.954 81.6098 291.456 88.6515 286.459 93.595C281.52 98.481 274.599 100.924 265.696 100.924H245.622V44.0161H265.696ZM265.696 93.0776C271.727 93.0776 276.322 91.2957 279.481 87.7317C282.697 84.1103 284.305 79.0231 284.305 72.4701C284.305 65.917 282.697 60.8585 279.481 57.2946C276.322 53.6732 271.727 51.8625 265.696 51.8625H254.841V93.0776H265.696Z" fill="white"/>
<path d="M350.448 85.8348C349.299 89.2838 347.576 92.2154 345.278 94.6297C342.981 96.9865 340.281 98.7684 337.18 99.9756C334.078 101.183 330.661 101.786 326.928 101.786C321.471 101.786 316.733 100.608 312.712 98.2511C308.692 95.8943 305.59 92.5316 303.408 88.1629C301.225 83.7942 300.134 78.5632 300.134 72.4701C300.134 66.3769 301.225 61.146 303.408 56.7773C305.59 52.4086 308.692 49.0458 312.712 46.689C316.733 44.3322 321.443 43.1538 326.842 43.1538C330.575 43.1538 333.935 43.6712 336.921 44.7059C339.966 45.7406 342.55 47.2926 344.675 49.362C346.8 51.4314 348.437 54.0181 349.586 57.1222L340.885 61.0022C339.736 57.6108 338.07 55.139 335.888 53.587C333.705 51.9774 330.862 51.1727 327.358 51.1727C323.855 51.1727 320.782 52.0062 318.14 53.6732C315.498 55.3402 313.43 57.7545 311.937 60.916C310.501 64.0776 309.783 67.9289 309.783 72.4701C309.783 76.9537 310.472 80.8051 311.851 84.0241C313.229 87.1857 315.211 89.5999 317.795 91.2669C320.38 92.9339 323.482 93.7674 327.1 93.7674C330.604 93.7674 333.619 92.8765 336.146 91.0945C338.731 89.255 340.569 86.5246 341.66 82.9032L350.448 85.8348Z" fill="white"/>
<path d="M217.206 112.157C222.318 112.157 226.741 113.135 230.474 115.089C234.207 116.986 237.366 119.803 239.951 123.539L233.748 129.488C231.565 126.154 229.096 123.769 226.339 122.332C223.639 120.837 220.423 120.09 216.69 120.09C213.933 120.09 211.664 120.464 209.883 121.211C208.103 121.958 206.782 122.964 205.92 124.229C205.116 125.436 204.714 126.816 204.714 128.368C204.714 130.15 205.317 131.702 206.523 133.024C207.787 134.346 210.113 135.38 213.502 136.128L225.046 138.714C230.56 139.922 234.466 141.761 236.763 144.233C239.061 146.705 240.209 149.837 240.209 153.631C240.209 157.138 239.262 160.184 237.366 162.771C235.471 165.358 232.829 167.341 229.44 168.72C226.109 170.1 222.175 170.79 217.637 170.79C213.617 170.79 209.998 170.273 206.782 169.238C203.566 168.203 200.751 166.795 198.339 165.013C195.927 163.231 193.945 161.19 192.394 158.891L198.77 152.51C199.976 154.522 201.498 156.333 203.336 157.942C205.174 159.494 207.299 160.702 209.711 161.564C212.181 162.426 214.909 162.857 217.896 162.857C220.538 162.857 222.806 162.541 224.702 161.909C226.655 161.276 228.119 160.357 229.096 159.15C230.129 157.885 230.646 156.39 230.646 154.666C230.646 152.999 230.072 151.533 228.923 150.268C227.832 149.004 225.764 148.027 222.72 147.337L210.228 144.491C206.782 143.744 203.939 142.681 201.699 141.301C199.459 139.922 197.793 138.255 196.702 136.3C195.611 134.288 195.065 132.046 195.065 129.575C195.065 126.356 195.927 123.453 197.65 120.866C199.43 118.222 201.986 116.124 205.317 114.572C208.649 112.962 212.612 112.157 217.206 112.157Z" fill="white"/>
<path d="M286.439 187C283.223 187 280.265 186.425 277.566 185.276C274.924 184.126 272.77 182.258 271.104 179.671C269.496 177.084 268.692 173.635 268.692 169.324C268.692 168.634 268.749 167.887 268.864 167.082C268.979 166.277 269.18 165.501 269.467 164.754L276.273 164.237C276.101 165.042 275.957 165.789 275.843 166.479C275.728 167.111 275.67 167.715 275.67 168.289C275.67 171.278 276.158 173.52 277.135 175.015C278.169 176.509 279.49 177.515 281.098 178.033C282.764 178.55 284.573 178.809 286.526 178.809C288.766 178.809 290.747 178.521 292.47 177.946C294.251 177.372 295.687 176.624 296.778 175.705L299.018 183.206C297.639 184.413 295.715 185.333 293.246 185.965C290.833 186.655 288.565 187 286.439 187ZM272.396 112.157C277.91 112.157 282.677 113.336 286.698 115.693C290.718 118.049 293.82 121.412 296.002 125.781C298.185 130.15 299.276 135.38 299.276 141.474C299.276 147.567 298.185 152.798 296.002 157.166C293.82 161.535 290.718 164.898 286.698 167.255C282.677 169.611 277.91 170.79 272.396 170.79C266.94 170.79 262.202 169.611 258.181 167.255C254.161 164.898 251.059 161.535 248.877 157.166C246.694 152.798 245.603 147.567 245.603 141.474C245.603 135.38 246.694 130.15 248.877 125.781C251.059 121.412 254.161 118.049 258.181 115.693C262.202 113.336 266.94 112.157 272.396 112.157ZM272.396 120.176C268.835 120.176 265.763 121.01 263.178 122.677C260.651 124.344 258.698 126.758 257.32 129.92C255.941 133.081 255.252 136.932 255.252 141.474C255.252 145.957 255.941 149.809 257.32 153.028C258.698 156.189 260.651 158.604 263.178 160.271C265.763 161.938 268.835 162.771 272.396 162.771C276.015 162.771 279.088 161.938 281.615 160.271C284.199 158.604 286.181 156.189 287.559 153.028C288.938 149.809 289.627 145.957 289.627 141.474C289.627 136.932 288.938 133.081 287.559 129.92C286.181 126.758 284.199 124.344 281.615 122.677C279.088 121.01 276.015 120.176 272.396 120.176Z" fill="white"/>
<path d="M353.994 113.02V148.113C353.994 155.643 352.012 161.305 348.049 165.099C344.086 168.893 338.314 170.79 330.732 170.79C323.266 170.79 317.522 168.893 313.502 165.099C309.539 161.305 307.557 155.643 307.557 148.113V113.02H316.776V146.992C316.776 152.338 317.924 156.304 320.222 158.891C322.519 161.478 326.023 162.771 330.732 162.771C335.5 162.771 339.032 161.478 341.329 158.891C343.627 156.304 344.775 152.338 344.775 146.992V113.02H353.994Z" fill="white"/>
<path d="M410.644 169.928H400.908L395.481 155.011H371.616L366.189 169.928H356.712L378.164 113.02H389.192L410.644 169.928ZM374.201 147.509H392.896L383.592 120.952L374.201 147.509Z" fill="white"/>
<path d="M439.595 113.02C445.683 113.02 450.507 114.543 454.068 117.59C457.687 120.636 459.496 124.746 459.496 129.92C459.496 135.265 457.687 139.404 454.068 142.336C450.507 145.21 445.683 146.647 439.595 146.647L438.733 147.164H425.552V169.928H416.419V113.02H439.595ZM438.905 139.49C442.639 139.49 445.396 138.743 447.176 137.249C449.014 135.697 449.933 133.34 449.933 130.178C449.933 127.074 449.014 124.746 447.176 123.194C445.396 121.642 442.639 120.866 438.905 120.866H425.552V139.49H438.905ZM444.333 141.387L462.856 169.928H452.259L436.407 145.009L444.333 141.387Z" fill="white"/>
<path d="M469.996 169.928V113.02H511.177V120.952H479.214V137.335H504.199V145.095H479.214V161.995H512.383V169.928H469.996Z" fill="white"/>
<path d="M540.533 113.02C549.436 113.02 556.357 115.491 561.296 120.435C566.293 125.321 568.792 132.334 568.792 141.474C568.792 150.613 566.293 157.655 561.296 162.599C556.357 167.485 549.436 169.928 540.533 169.928H520.46V113.02H540.533ZM540.533 162.081C546.564 162.081 551.159 160.299 554.318 156.735C557.534 153.114 559.143 148.027 559.143 141.474C559.143 134.921 557.534 129.862 554.318 126.298C551.159 122.677 546.564 120.866 540.533 120.866H529.678V162.081H540.533Z" fill="white"/>
</svg>
