<svg width="416" height="59" viewBox="0 0 416 59" fill="none" xmlns="http://www.w3.org/2000/svg">
<g clip-path="url(#clip0_74_538)">
<rect width="416" height="59" fill="white"/>
<path fill-rule="evenodd" clip-rule="evenodd" d="M29.1908 30.3316C29.0858 31.51 28.6901 32.6682 28.0036 33.6938L14.7658 53.473C14.6548 52.9607 14.5956 52.4184 14.5956 51.8485L14.5956 7.53525C14.5956 6.96533 14.6548 6.4231 14.7658 5.91081L28.0036 25.6899C28.6901 26.7156 29.0858 27.8738 29.1908 29.0522L29.1908 30.3316ZM29.3611 53.4734L27.7702 55.8505C24.1313 61.2873 16.0393 59.3535 14.7658 53.473L13.1745 55.8505C9.21872 61.761 0 58.9607 0 51.8485L1.41055e-06 7.53525C1.69366e-06 0.4231 9.21872 -2.37721 13.1745 3.5333L14.7658 5.91081C16.0393 0.0302378 24.1313 -1.90358 27.7702 3.5333L29.3611 5.91033C29.25 6.42276 29.1908 6.96515 29.1908 7.53525V29.0522C29.2287 29.4778 29.2287 29.906 29.1908 30.3316V51.8485C29.1908 52.4186 29.25 52.961 29.3611 53.4734ZM29.3611 53.4734L42.5992 33.6938C44.2201 31.2721 44.2201 28.1117 42.5992 25.6899L29.3611 5.91033C30.6349 0.0301324 38.7266 -1.90343 42.3653 3.5333L57.1944 25.6899C58.8153 28.1117 58.8153 31.2721 57.1944 33.6938L42.3653 55.8505C38.7266 61.2872 30.6349 59.3536 29.3611 53.4734Z" fill="#202020"/>
<path d="M70.6872 46.0626V13.2608H94.4242V17.8332H76.0007V27.2761H90.4018V31.7491H76.0007V41.4902H95.1194V46.0626H70.6872Z" fill="#202020"/>
<path d="M111.345 13.2608C116.476 13.2608 120.466 14.6855 123.313 17.535C126.193 20.3513 127.633 24.3935 127.633 29.6617C127.633 34.9298 126.193 38.9886 123.313 41.8381C120.466 44.6544 116.476 46.0626 111.345 46.0626H99.7745V13.2608H111.345ZM111.345 41.5399C114.821 41.5399 117.47 40.5128 119.29 38.4585C121.144 36.3711 122.071 33.4389 122.071 29.6617C122.071 25.8845 121.144 22.9688 119.29 20.9145C117.47 18.8272 114.821 17.7835 111.345 17.7835H105.088V41.5399H111.345Z" fill="#202020"/>
<path d="M160.196 37.3651C159.534 39.3531 158.54 41.0429 157.216 42.4345C155.892 43.7929 154.336 44.8201 152.548 45.5159C150.761 46.2117 148.791 46.5596 146.639 46.5596C143.494 46.5596 140.763 45.8803 138.445 44.5219C136.128 43.1634 134.34 41.2251 133.082 38.707C131.824 36.1889 131.195 33.1738 131.195 29.6617C131.195 26.1496 131.824 23.1345 133.082 20.6163C134.34 18.0982 136.128 16.1599 138.445 14.8015C140.763 13.443 143.477 12.7638 146.589 12.7638C148.741 12.7638 150.678 13.062 152.399 13.6584C154.154 14.2548 155.644 15.1494 156.869 16.3422C158.094 17.535 159.037 19.026 159.699 20.8151L154.684 23.0516C154.021 21.0968 153.061 19.672 151.803 18.7775C150.545 17.8497 148.907 17.3859 146.887 17.3859C144.868 17.3859 143.097 17.8663 141.574 18.8272C140.051 19.788 138.859 21.1796 137.998 23.0019C137.171 24.8242 136.757 27.0442 136.757 29.6617C136.757 32.2461 137.154 34.466 137.949 36.3214C138.743 38.1438 139.885 39.5353 141.375 40.4962C142.865 41.4571 144.653 41.9375 146.738 41.9375C148.758 41.9375 150.496 41.4239 151.952 40.3968C153.442 39.3365 154.502 37.7627 155.131 35.6753L160.196 37.3651Z" fill="#202020"/>
<path d="M186.346 12.7638C189.292 12.7638 191.842 13.3271 193.994 14.4536C196.145 15.547 197.966 17.1705 199.456 19.3242L195.881 22.7535C194.623 20.8318 193.199 19.4567 191.61 18.6284C190.054 17.7669 188.2 17.3362 186.048 17.3362C184.459 17.3362 183.151 17.5516 182.125 17.9823C181.099 18.413 180.337 18.9929 179.841 19.7218C179.377 20.4176 179.146 21.2128 179.146 22.1074C179.146 23.1345 179.493 24.0291 180.188 24.7912C180.917 25.5532 182.257 26.1496 184.211 26.5803L190.865 28.0713C194.043 28.7671 196.294 29.8274 197.619 31.2521C198.943 32.6768 199.605 34.4826 199.605 36.6694C199.605 38.6905 199.059 40.4465 197.966 41.9375C196.874 43.4285 195.351 44.5716 193.398 45.3668C191.477 46.162 189.21 46.5596 186.594 46.5596C184.277 46.5596 182.191 46.2614 180.337 45.665C178.483 45.0686 176.861 44.2569 175.471 43.2297C174.08 42.2026 172.938 41.0264 172.044 39.701L175.719 36.0233C176.414 37.1829 177.292 38.2266 178.351 39.1544C179.41 40.0489 180.635 40.7447 182.026 41.2417C183.449 41.7387 185.022 41.9872 186.743 41.9872C188.266 41.9872 189.574 41.805 190.666 41.4405C191.792 41.0761 192.636 40.5459 193.199 39.8501C193.795 39.1212 194.093 38.2598 194.093 37.2658C194.093 36.3049 193.762 35.46 193.1 34.7311C192.471 34.0022 191.279 33.4389 189.524 33.0413L182.324 31.4012C180.337 30.9705 178.699 30.3575 177.407 29.5623C176.116 28.7671 175.156 27.8063 174.527 26.6797C173.898 25.5201 173.584 24.2279 173.584 22.8032C173.584 20.9477 174.08 19.2745 175.073 17.7835C176.1 16.2594 177.573 15.05 179.493 14.1554C181.413 13.2277 183.698 12.7638 186.346 12.7638Z" fill="#202020"/>
<path d="M226.252 55.9031C224.398 55.9031 222.693 55.5718 221.137 54.9091C219.614 54.2465 218.373 53.1697 217.413 51.6787C216.486 50.1877 216.022 48.1997 216.022 45.7147C216.022 45.3171 216.055 44.8864 216.122 44.4225C216.188 43.9587 216.304 43.5114 216.469 43.0806L220.392 42.7824C220.293 43.2463 220.21 43.677 220.144 44.0746C220.078 44.4391 220.045 44.787 220.045 45.1183C220.045 46.8412 220.326 48.1334 220.889 48.9949C221.485 49.8563 222.246 50.4362 223.173 50.7344C224.133 51.0326 225.176 51.1817 226.302 51.1817C227.593 51.1817 228.735 51.016 229.728 50.6847C230.754 50.3533 231.582 49.9226 232.211 49.3925L233.502 53.7163C232.708 54.4121 231.599 54.9423 230.175 55.3067C228.785 55.7043 227.477 55.9031 226.252 55.9031ZM218.158 12.7638C221.336 12.7638 224.084 13.4431 226.401 14.8015C228.718 16.16 230.506 18.0983 231.764 20.6164C233.022 23.1345 233.651 26.1496 233.651 29.6617C233.651 33.1738 233.022 36.1889 231.764 38.7071C230.506 41.2252 228.718 43.1635 226.401 44.5219C224.084 45.8804 221.336 46.5596 218.158 46.5596C215.013 46.5596 212.281 45.8804 209.964 44.5219C207.646 43.1635 205.859 41.2252 204.601 38.7071C203.343 36.1889 202.714 33.1738 202.714 29.6617C202.714 26.1496 203.343 23.1345 204.601 20.6164C205.859 18.0983 207.646 16.16 209.964 14.8015C212.281 13.4431 215.013 12.7638 218.158 12.7638ZM218.158 17.3859C216.105 17.3859 214.334 17.8663 212.844 18.8272C211.387 19.7881 210.262 21.1796 209.467 23.002C208.673 24.8243 208.275 27.0442 208.275 29.6617C208.275 32.2461 208.673 34.466 209.467 36.3215C210.262 38.1438 211.387 39.5354 212.844 40.4962C214.334 41.4571 216.105 41.9375 218.158 41.9375C220.243 41.9375 222.014 41.4571 223.471 40.4962C224.961 39.5354 226.103 38.1438 226.898 36.3215C227.692 34.466 228.089 32.2461 228.089 29.6617C228.089 27.0442 227.692 24.8243 226.898 23.002C226.103 21.1796 224.961 19.7881 223.471 18.8272C222.014 17.8663 220.243 17.3859 218.158 17.3859Z" fill="#202020"/>
<path d="M265.19 13.2608V33.4886C265.19 37.829 264.048 41.0926 261.764 43.2794C259.48 45.4662 256.152 46.5596 251.782 46.5596C247.479 46.5596 244.168 45.4662 241.851 43.2794C239.566 41.0926 238.424 37.829 238.424 33.4886V13.2608H243.738V32.8425C243.738 35.9239 244.4 38.2101 245.724 39.701C247.048 41.192 249.068 41.9375 251.782 41.9375C254.53 41.9375 256.566 41.192 257.89 39.701C259.215 38.2101 259.877 35.9239 259.877 32.8425V13.2608H265.19Z" fill="#202020"/>
<path d="M297.843 46.0626H292.232L289.103 37.4646H275.348L272.219 46.0626H266.757L279.122 13.2608H285.478L297.843 46.0626ZM276.838 33.1407H287.614L282.25 17.8332L276.838 33.1407Z" fill="#202020"/>
<path d="M314.531 13.2608C318.04 13.2608 320.821 14.1389 322.873 15.8949C324.959 17.651 326.002 20.02 326.002 23.002C326.002 26.0833 324.959 28.4689 322.873 30.1587C320.821 31.8154 318.04 32.6437 314.531 32.6437L314.034 32.9419H306.436V46.0626H301.172V13.2608H314.531ZM314.133 28.5186C316.285 28.5186 317.874 28.0879 318.901 27.2264C319.96 26.3318 320.49 24.9734 320.49 23.1511C320.49 21.3619 319.96 20.02 318.901 19.1254C317.874 18.2308 316.285 17.7835 314.133 17.7835H306.436V28.5186H314.133ZM317.262 29.612L327.939 46.0626H321.83L312.693 31.6994L317.262 29.612Z" fill="#202020"/>
<path d="M332.054 46.0626V13.2608H355.791V17.8332H337.367V27.2761H351.769V31.7491H337.367V41.4902H356.486V46.0626H332.054Z" fill="#202020"/>
<path d="M372.712 13.2608C377.843 13.2608 381.832 14.6856 384.68 17.535C387.56 20.3513 389 24.3936 389 29.6617C389 34.9299 387.56 38.9887 384.68 41.8381C381.832 44.6544 377.843 46.0626 372.712 46.0626H361.141V13.2608H372.712ZM372.712 41.5399C376.188 41.5399 378.836 40.5128 380.657 38.4586C382.511 36.3712 383.438 33.4389 383.438 29.6617C383.438 25.8845 382.511 22.9688 380.657 20.9146C378.836 18.8272 376.188 17.7835 372.712 17.7835H366.455V41.5399H372.712Z" fill="#202020"/>
</g>
<defs>
<clipPath id="clip0_74_538">
<rect width="416" height="59" fill="white"/>
</clipPath>
</defs>
</svg>
