<svg width="12" height="16" viewBox="0 0 12 16" fill="none"
    xmlns="http://www.w3.org/2000/svg">
    <path d="M0.940186 8.00008L0.504696 7.75442L0.366119 8.00008L0.504696 8.24574L0.940186 8.00008ZM5.17095 8.50008C5.4471 8.50008 5.67095 8.27622 5.67095 8.00008C5.67095 7.72394 5.4471 7.50008 5.17095 7.50008V8.50008ZM2.38504 4.42109L0.504696 7.75442L1.37567 8.24574L3.25602 4.91241L2.38504 4.42109ZM0.504696 8.24574L2.38504 11.5791L3.25602 11.0878L1.37567 7.75442L0.504696 8.24574ZM0.940186 8.50008H5.17095V7.50008H0.940186V8.50008Z" fill="#889399"/>
    <path d="M4.70087 5.42121V4.37332C4.70087 4.25534 4.70087 4.19635 4.70363 4.14381C4.74829 3.29556 5.32389 2.56806 6.13912 2.32948C6.18961 2.3147 6.24702 2.30113 6.36183 2.27399V2.27399C6.62412 2.212 6.75527 2.181 6.8602 2.16393C8.60112 1.88072 10.2095 3.15327 10.3344 4.91266C10.3419 5.0187 10.3419 5.15346 10.3419 5.42298V10.5769C10.3419 10.8464 10.3419 10.9811 10.3344 11.0872C10.2095 12.8466 8.60112 14.1191 6.8602 13.8359C6.75527 13.8188 6.62412 13.7878 6.36183 13.7258V13.7258C6.24702 13.6987 6.18961 13.6851 6.13912 13.6704C5.32389 13.4318 4.74829 12.7043 4.70363 11.856C4.70087 11.8035 4.70087 11.7445 4.70087 11.6265V10.7106" stroke="#889399"/>
</svg>
