<svg width="24" height="24" viewBox="0 0 24 24" fill="none" xmlns="http://www.w3.org/2000/svg">
    <path fill-rule="evenodd" clip-rule="evenodd"
        d="M4.80002 3.59998C4.1635 3.59998 3.55306 3.85283 3.10297 4.30292C2.65288 4.75301 2.40002 5.36346 2.40002 5.99998V18C2.40002 18.6365 2.65288 19.2469 3.10297 19.697C3.55306 20.1471 4.1635 20.4 4.80002 20.4H19.2C19.8365 20.4 20.447 20.1471 20.8971 19.697C21.3472 19.2469 21.6 18.6365 21.6 18V5.99998C21.6 5.36346 21.3472 4.75301 20.8971 4.30292C20.447 3.85283 19.8365 3.59998 19.2 3.59998H4.80002ZM8.40002 5.99998H15.6V10.8H8.40002V5.99998ZM18 15.6V18H19.2V15.6H18ZM15.6 13.2H8.40002V18H15.6V13.2ZM18 13.2H19.2V10.8H18V13.2ZM19.2 8.39998V5.99998H18V8.39998H19.2ZM6.00002 5.99998V8.39998H4.80002V5.99998H6.00002ZM6.00002 10.8H4.80002V13.2H6.00002V10.8ZM4.80002 15.6H6.00002V18H4.80002V15.6Z"
        fill="white" />
</svg>