<svg width="24" height="24" viewBox="0 0 24 24" fill="none" xmlns="http://www.w3.org/2000/svg">
    <path
        d="M4.80002 4.80005C4.1635 4.80005 3.55306 5.05291 3.10297 5.50299C2.65288 5.95308 2.40002 6.56353 2.40002 7.20005V8.40005H21.6V7.20005C21.6 6.56353 21.3472 5.95308 20.8971 5.50299C20.447 5.05291 19.8365 4.80005 19.2 4.80005H4.80002Z"
        fill="white" />
    <path fill-rule="evenodd" clip-rule="evenodd"
        d="M21.6 10.8H2.40002V16.8C2.40002 17.4366 2.65288 18.047 3.10297 18.4971C3.55306 18.9472 4.1635 19.2 4.80002 19.2H19.2C19.8365 19.2 20.447 18.9472 20.8971 18.4971C21.3472 18.047 21.6 17.4366 21.6 16.8V10.8ZM4.80002 15.6C4.80002 15.2818 4.92645 14.9766 5.1515 14.7515C5.37654 14.5265 5.68176 14.4 6.00002 14.4H7.20002C7.51828 14.4 7.82351 14.5265 8.04855 14.7515C8.2736 14.9766 8.40002 15.2818 8.40002 15.6C8.40002 15.9183 8.2736 16.2235 8.04855 16.4486C7.82351 16.6736 7.51828 16.8 7.20002 16.8H6.00002C5.68176 16.8 5.37654 16.6736 5.1515 16.4486C4.92645 16.2235 4.80002 15.9183 4.80002 15.6ZM10.8 14.4C10.4818 14.4 10.1765 14.5265 9.9515 14.7515C9.72645 14.9766 9.60002 15.2818 9.60002 15.6C9.60002 15.9183 9.72645 16.2235 9.9515 16.4486C10.1765 16.6736 10.4818 16.8 10.8 16.8H12C12.3183 16.8 12.6235 16.6736 12.8486 16.4486C13.0736 16.2235 13.2 15.9183 13.2 15.6C13.2 15.2818 13.0736 14.9766 12.8486 14.7515C12.6235 14.5265 12.3183 14.4 12 14.4H10.8Z"
        fill="white" />
</svg>