<svg width="26" height="26" viewBox="0 0 26 26" fill="none" xmlns="http://www.w3.org/2000/svg">
<path d="M11.9167 4.33331V8.66663C11.9167 9.52858 11.5743 10.3552 10.9648 10.9647C10.3553 11.5742 9.5287 11.9166 8.66674 11.9166H4.33342C3.47147 11.9166 2.64483 11.5742 2.03533 10.9647C1.42584 10.3552 1.08344 9.52858 1.08344 8.66663V4.33331C1.08344 3.47135 1.42584 2.64471 2.03533 2.03521C2.64483 1.42572 3.47147 1.08331 4.33342 1.08331H8.66674C9.5287 1.08331 10.3553 1.42572 10.9648 2.03521C11.5743 2.64471 11.9167 3.47135 11.9167 4.33331ZM21.6667 1.08331H17.3334C16.4714 1.08331 15.6448 1.42572 15.0353 2.03521C14.4258 2.64471 14.0834 3.47135 14.0834 4.33331V8.66663C14.0834 9.52858 14.4258 10.3552 15.0353 10.9647C15.6448 11.5742 16.4714 11.9166 17.3334 11.9166H21.6667C22.5287 11.9166 23.3553 11.5742 23.9648 10.9647C24.5743 10.3552 24.9167 9.52858 24.9167 8.66663V4.33331C24.9167 3.47135 24.5743 2.64471 23.9648 2.03521C23.3553 1.42572 22.5287 1.08331 21.6667 1.08331ZM8.66674 14.0833H4.33342C3.47147 14.0833 2.64483 14.4257 2.03533 15.0352C1.42584 15.6447 1.08344 16.4713 1.08344 17.3333V21.6666C1.08344 22.5286 1.42584 23.3552 2.03533 23.9647C2.64483 24.5742 3.47147 24.9166 4.33342 24.9166H8.66674C9.5287 24.9166 10.3553 24.5742 10.9648 23.9647C11.5743 23.3552 11.9167 22.5286 11.9167 21.6666V17.3333C11.9167 16.4713 11.5743 15.6447 10.9648 15.0352C10.3553 14.4257 9.5287 14.0833 8.66674 14.0833ZM21.6667 14.0833H17.3334C16.4714 14.0833 15.6448 14.4257 15.0353 15.0352C14.4258 15.6447 14.0834 16.4713 14.0834 17.3333V21.6666C14.0834 22.5286 14.4258 23.3552 15.0353 23.9647C15.6448 24.5742 16.4714 24.9166 17.3334 24.9166H21.6667C22.5287 24.9166 23.3553 24.5742 23.9648 23.9647C24.5743 23.3552 24.9167 22.5286 24.9167 21.6666V17.3333C24.9167 16.4713 24.5743 15.6447 23.9648 15.0352C23.3553 14.4257 22.5287 14.0833 21.6667 14.0833Z" fill="white"/>
</svg>
