<svg width="26" height="24" viewBox="0 0 26 24" fill="none" xmlns="http://www.w3.org/2000/svg">
<path d="M0 1.29089C0.00237905 0.949483 0.13897 0.622717 0.380266 0.38118C0.621561 0.139642 0.948191 0.00272302 1.2896 0H24.7103C25.4227 0 25.9999 0.578495 25.9999 1.29089V22.1089C25.9975 22.4503 25.8609 22.7771 25.6197 23.0186C25.3784 23.2601 25.0517 23.3971 24.7103 23.3998H1.2896C0.947454 23.3994 0.619444 23.2633 0.377635 23.0212C0.135826 22.7792 -1.73491e-07 22.451 0 22.1089V1.29089ZM5.19998 15.5999V18.1998H20.7999V15.5999H5.19998ZM5.19998 5.19995V12.9999H13V5.19995H5.19998ZM15.6 5.19995V7.79993H20.7999V5.19995H15.6ZM15.6 10.3999V12.9999H20.7999V10.3999H15.6ZM7.79998 7.79993H10.4V10.3999H7.79998V7.79993Z" fill="white"/>
</svg>
