<svg width="26" height="26" viewBox="0 0 26 26" fill="none" xmlns="http://www.w3.org/2000/svg">
<g clip-path="url(#clip0_918_14515)">
<path d="M10.715 26.0002V23.6643C9.0346 23.6643 7.66813 22.2978 7.66813 20.6174C7.66813 18.937 9.0346 17.5705 10.715 17.5705V15.2854H6.4571L6.81937 14.2678C6.87741 14.1064 6.90641 13.936 6.90641 13.762C6.90641 12.9221 6.2228 12.2385 5.38298 12.2385C4.54316 12.2385 3.85955 12.9221 3.85955 13.762C3.85955 13.936 3.88854 14.1064 3.94658 14.2678L4.30886 15.2854H0.000183105C0.378147 20.9776 5.02284 25.6223 10.715 26.0002Z" fill="white"/>
<path d="M5.38298 10.7148C7.06338 10.7148 8.42984 12.0813 8.42984 13.7617H10.715V9.50378L11.7326 9.86605C12.6706 10.2 13.7611 9.44279 13.7619 8.42966C13.7611 7.41576 12.6713 6.65257 11.7326 6.99326L10.715 7.35553V3.13623C5.02284 3.51419 0.378147 8.06952 0.000183105 13.7617H2.33611C2.33611 12.0813 3.70258 10.7148 5.38298 10.7148Z" fill="white"/>
<path d="M22.8639 15.2849H20.6173C20.6173 16.9653 19.2509 18.3318 17.5705 18.3318C15.8901 18.3318 14.5236 16.9653 14.5236 15.2849H12.2385V19.5428L11.2209 19.1805C10.2791 18.8421 9.19083 19.603 9.19159 20.6169C9.19083 21.6308 10.2799 22.3918 11.2209 22.0533L12.2385 21.6911V25.9997C17.9306 25.6218 22.4859 20.9771 22.8639 15.2849Z" fill="white"/>
<path d="M22.9025 6.14427V3.09741H19.8556C19.8556 1.41701 18.4892 -0.000244141 16.8088 -0.000244141C15.1284 -0.000244141 13.7619 1.41701 13.7619 3.09741H12.2385V5.38256C13.9189 5.38256 15.2853 6.74903 15.2853 8.42943C15.2853 10.1098 13.9189 11.4763 12.2385 11.4763V13.7614H16.4964L16.1341 14.779C16.076 14.9405 16.047 15.1108 16.047 15.2849C16.047 16.1247 16.7307 16.8083 17.5705 16.8083C18.4103 16.8083 19.0939 16.1247 19.0939 15.2849C19.0939 15.1108 19.0649 14.9405 19.0069 14.779L18.6446 13.7614H22.9025V12.238C24.5829 12.238 26.0001 10.8715 26.0001 9.19114C26.0001 7.51074 24.5829 6.14427 22.9025 6.14427Z" fill="white"/>
</g>
<defs>
<clipPath id="clip0_918_14515">
<rect width="25.9999" height="25.9999" fill="white"/>
</clipPath>
</defs>
</svg>
