<svg width="26" height="26" viewBox="0 0 26 26" fill="none" xmlns="http://www.w3.org/2000/svg">
<path d="M7.31266 14.6255H2.43768C1.98895 14.6255 1.62518 14.9893 1.62518 15.438V23.563C1.62518 24.0117 1.98895 24.3755 2.43768 24.3755H7.31266C7.76139 24.3755 8.12516 24.0117 8.12516 23.563V15.438C8.12516 14.9893 7.76139 14.6255 7.31266 14.6255Z" fill="white"/>
<path d="M23.5627 8.12524H18.6877C18.239 8.12524 17.8752 8.48901 17.8752 8.93774V23.5627C17.8752 24.0114 18.239 24.3752 18.6877 24.3752H23.5627C24.0114 24.3752 24.3752 24.0114 24.3752 23.5627V8.93774C24.3752 8.48901 24.0114 8.12524 23.5627 8.12524Z" fill="white"/>
<path d="M15.4377 1.62524H10.5627C10.114 1.62524 9.75018 1.98901 9.75018 2.43774V23.5627C9.75018 24.0114 10.114 24.3752 10.5627 24.3752H15.4377C15.8864 24.3752 16.2502 24.0114 16.2502 23.5627V2.43774C16.2502 1.98901 15.8864 1.62524 15.4377 1.62524Z" fill="white"/>
</svg>
