<svg width="24" height="24" viewBox="0 0 24 24" fill="none" xmlns="http://www.w3.org/2000/svg">
    <path
        d="M12.4728 2.49599C12.3234 2.43195 12.1625 2.39893 12 2.39893C11.8374 2.39893 11.6766 2.43195 11.5272 2.49599L3.12716 6.09599C2.91069 6.18821 2.72611 6.34203 2.59637 6.53831C2.46663 6.7346 2.39746 6.9647 2.39746 7.19999C2.39746 7.43528 2.46663 7.66538 2.59637 7.86167C2.72611 8.05796 2.91069 8.21178 3.12716 8.30399L6.29996 9.66119C6.41773 9.52798 6.56365 9.42264 6.72716 9.35279L11.5272 7.29599C11.6724 7.23126 11.8291 7.19603 11.9881 7.19237C12.147 7.18872 12.3052 7.21669 12.4532 7.27468C12.6013 7.33267 12.7364 7.41951 12.8506 7.53016C12.9648 7.6408 13.0559 7.77305 13.1186 7.91921C13.1812 8.06537 13.2142 8.22252 13.2156 8.38154C13.217 8.54056 13.1868 8.69827 13.1267 8.84551C13.0666 8.99274 12.9779 9.12656 12.8656 9.23919C12.7533 9.35183 12.6198 9.44102 12.4728 9.50159L9.20036 10.9056L11.5284 11.9028C11.6776 11.9667 11.8382 11.9996 12.0006 11.9996C12.1629 11.9996 12.3235 11.9667 12.4728 11.9028L20.8728 8.30279C21.0885 8.21023 21.2724 8.05642 21.4016 7.8604C21.5308 7.66438 21.5996 7.43476 21.5996 7.19999C21.5996 6.96522 21.5308 6.73561 21.4016 6.53959C21.2724 6.34357 21.0885 6.18975 20.8728 6.09719L12.4728 2.49719V2.49599ZM3.97196 11.2764L5.99996 12.144V17.0664C5.58446 16.9719 5.16372 16.9022 4.73996 16.8576C4.46653 16.8289 4.21126 16.7071 4.01686 16.5127C3.82245 16.3183 3.7007 16.063 3.67196 15.7896C3.51415 14.2787 3.61561 12.7519 3.97196 11.2752V11.2764ZM11.16 19.8876C10.3488 19.0917 9.41738 18.4283 8.39996 17.922V13.1736L10.5816 14.1096C11.0298 14.3017 11.5123 14.4008 12 14.4008C12.4876 14.4008 12.9702 14.3017 13.4184 14.1096L20.028 11.2764C20.3864 12.7528 20.4879 14.2799 20.328 15.7908C20.2992 16.0642 20.1775 16.3195 19.9831 16.5139C19.7887 16.7083 19.5334 16.8301 19.26 16.8588C16.839 17.1132 14.5758 18.1809 12.84 19.8876C12.6156 20.1075 12.3141 20.2306 12 20.2306C11.6859 20.2306 11.3843 20.1075 11.16 19.8876V19.8876ZM7.19996 21.6C7.51822 21.6 7.82344 21.4736 8.04849 21.2485C8.27353 21.0235 8.39996 20.7183 8.39996 20.4V17.922C7.63676 17.5428 6.83107 17.256 5.99996 17.0676V20.4C5.99996 20.7183 6.12639 21.0235 6.35143 21.2485C6.57647 21.4736 6.8817 21.6 7.19996 21.6Z"
        fill="white" />
</svg>