<svg width="21" height="20" viewBox="0 0 21 20" fill="none" xmlns="http://www.w3.org/2000/svg">
<path d="M6.75 16.875H4.25C4.08429 16.875 3.92529 16.8092 3.80811 16.692C3.69092 16.5747 3.625 16.4158 3.625 16.25V3.75C3.625 3.58421 3.69092 3.42529 3.80811 3.30803C3.92529 3.19084 4.08429 3.125 4.25 3.125H6.75V16.875Z" fill="black" fill-opacity="0.1"/>
<path d="M9.25 9.375H14.25C14.5952 9.375 14.875 9.09518 14.875 8.75C14.875 8.40482 14.5952 8.125 14.25 8.125H9.25C8.90482 8.125 8.625 8.40482 8.625 8.75C8.625 9.09518 8.90482 9.375 9.25 9.375Z" fill="#1C1C1C"/>
<path d="M9.25 11.875H14.25C14.5952 11.875 14.875 11.5952 14.875 11.25C14.875 10.9048 14.5952 10.625 14.25 10.625H9.25C8.90482 10.625 8.625 10.9048 8.625 11.25C8.625 11.5952 8.90482 11.875 9.25 11.875Z" fill="#1C1C1C"/>
<path fill-rule="evenodd" clip-rule="evenodd" d="M3 3.75C3 3.75 3 3.23223 3.36612 2.86612C3.36612 2.86612 3.73223 2.5 4.25 2.5H16.75C16.75 2.5 17.2678 2.5 17.6339 2.86612C17.6339 2.86612 18 3.23223 18 3.75V16.25C18 16.25 18 16.7678 17.6339 17.1339C17.6339 17.1339 17.2678 17.5 16.75 17.5H4.25C4.25 17.5 3.73223 17.5 3.36612 17.1339C3.36612 17.1339 3 16.7678 3 16.25V3.75ZM4.25 3.75V16.25H16.75V3.75H4.25Z" fill="#1C1C1C"/>
<path d="M6.125 3.125V16.875C6.125 17.2202 6.40482 17.5 6.75 17.5C7.09518 17.5 7.375 17.2202 7.375 16.875V3.125C7.375 2.77982 7.09518 2.5 6.75 2.5C6.40482 2.5 6.125 2.77982 6.125 3.125Z" fill="#1C1C1C"/>
</svg>
