<svg width="21" height="21" viewBox="0 0 21 21" fill="none" xmlns="http://www.w3.org/2000/svg">
<path fill-rule="evenodd" clip-rule="evenodd" d="M10.4376 7.3187C10.4376 7.3187 11.6025 7.3187 12.4263 8.14246C12.4263 8.14246 13.2501 8.96622 13.2501 10.1312C13.2501 10.1312 13.2501 11.2962 12.4263 12.1199C12.4263 12.1199 11.6025 12.9437 10.4376 12.9437C10.4376 12.9437 9.27259 12.9437 8.44883 12.1199C8.44883 12.1199 7.62507 11.2962 7.62507 10.1312C7.62507 10.1312 7.62507 8.96622 8.44883 8.14246C8.44883 8.14246 9.27259 7.3187 10.4376 7.3187ZM10.4376 8.44369C10.4376 8.44369 9.73858 8.44369 9.24433 8.93795C9.24433 8.93795 8.75007 9.43221 8.75007 10.1312C8.75007 10.1312 8.75007 10.8302 9.24433 11.3244C9.24433 11.3244 9.73858 11.8187 10.4376 11.8187C10.4376 11.8187 11.1366 11.8187 11.6308 11.3244C11.6308 11.3244 12.1251 10.8302 12.1251 10.1312C12.1251 10.1312 12.1251 9.43221 11.6308 8.93795C11.6308 8.93795 11.1366 8.4437 10.4376 8.44369Z" fill="#CA6702"/>
<path d="M7.25619 6.95023C7.36168 6.84474 7.42116 6.70145 7.42116 6.55226C7.42116 6.40318 7.36198 6.26021 7.25663 6.15473C7.15114 6.04924 7.00784 5.98976 6.85866 5.98976C6.70958 5.98976 6.5666 6.04894 6.46113 6.15429C5.68345 6.93112 5.25733 7.94436 5.25733 7.94436C4.81243 8.99142 4.81243 10.1312 4.81243 10.1312C4.81243 11.2709 5.25814 12.3199 5.25814 12.3199C5.68345 13.3312 6.46113 14.108 6.46113 14.108C6.5666 14.2134 6.70958 14.2726 6.85866 14.2726C7.00784 14.2725 7.15119 14.2131 7.25662 14.1076C7.36198 14.0021 7.42116 13.8592 7.42116 13.7101C7.42108 13.5609 7.36173 13.4175 7.25619 13.3121C6.63482 12.6914 6.29355 11.8799 6.29355 11.8799C5.93743 11.0418 5.93743 10.1312 5.93743 10.1312C5.93743 9.22052 6.29436 8.38048 6.29436 8.38048C6.63483 7.5709 7.25619 6.95023 7.25619 6.95023Z" fill="#CA6702"/>
<path d="M14.4142 6.15451C15.1917 6.93126 15.617 7.94245 15.617 7.94245C16.0627 8.99142 16.0627 10.1312 16.0627 10.1312C16.0627 11.2709 15.6178 12.318 15.6178 12.318C15.1917 13.3312 14.414 14.108 14.414 14.108C14.3156 14.2064 14.1842 14.2647 14.0453 14.2718C14.0357 14.2723 14.0261 14.2726 14.0165 14.2726C13.8672 14.2726 13.724 14.2132 13.6185 14.1076C13.5197 14.0087 13.4612 13.8765 13.4546 13.7368C13.4542 13.7279 13.454 13.719 13.454 13.7101C13.4541 13.5609 13.5134 13.4175 13.6189 13.3121C14.2403 12.6914 14.5808 11.8819 14.5808 11.8819C14.9377 11.0418 14.9377 10.1312 14.9377 10.1312C14.9377 9.22052 14.5816 8.38239 14.5816 8.38239C14.2403 7.57091 13.6189 6.95023 13.6189 6.95023C13.5133 6.84472 13.454 6.70155 13.454 6.55226C13.454 6.40434 13.5122 6.26237 13.6162 6.1571L13.6185 6.15473C13.7117 6.06147 13.8346 6.00388 13.9659 5.99204C13.9826 5.99053 13.9994 5.98977 14.0162 5.98976C14.1628 5.98976 14.304 6.04704 14.409 6.1494L14.4142 6.15451Z" fill="#CA6702"/>
<path d="M5.26655 4.96025L5.26912 4.95766C5.37304 4.85239 5.4313 4.71042 5.4313 4.5625C5.4313 4.41314 5.3719 4.26991 5.26619 4.16439L5.26137 4.15964C5.15633 4.05728 5.01547 4 4.8688 4C4.8521 4.00002 4.83489 4.00077 4.81826 4.00228C4.6869 4.01413 4.56387 4.07177 4.47069 4.16512C3.30778 5.33028 2.66362 6.84561 2.66362 6.84561C2 8.42244 2 10.1312 2 10.1312C2 11.8401 2.66285 13.4151 2.66285 13.4151C3.30758 14.9321 4.47069 16.0974 4.47069 16.0974C4.57608 16.203 4.7191 16.2624 4.86829 16.2625C4.87712 16.2625 4.88648 16.2623 4.89531 16.2619C5.03499 16.2553 5.16721 16.1969 5.26619 16.0981C5.3719 15.9926 5.4313 15.8494 5.4313 15.7C5.4313 15.6905 5.43106 15.6809 5.43058 15.6714C5.42351 15.5325 5.3652 15.4011 5.26692 15.3026C4.25773 14.2916 3.69976 12.9787 3.69976 12.9787C3.125 11.613 3.125 10.1312 3.125 10.1312C3.125 8.64953 3.69899 7.28564 3.69899 7.28564C4.25763 5.97116 5.26655 4.96025 5.26655 4.96025Z" fill="#CA6702"/>
<path d="M16.4048 4.16546L16.4041 4.16475C16.2987 4.05939 16.1559 4.00014 16.0068 4C15.8578 4 15.7144 4.05912 15.609 4.16439C15.5035 4.26988 15.4438 4.41332 15.4438 4.5625C15.4438 4.71151 15.503 4.85442 15.6082 4.95988C16.6174 5.97092 17.1754 7.28382 17.1754 7.28382C17.7501 8.64953 17.7501 10.1312 17.7501 10.1312C17.7501 11.613 17.1761 12.9769 17.1761 12.9769C16.6174 14.2916 15.6082 15.3026 15.6082 15.3026C15.503 15.4081 15.4438 15.551 15.4438 15.7C15.444 15.8492 15.5034 15.9927 15.609 16.0981C15.7144 16.2034 15.8573 16.2625 16.0063 16.2625C16.1555 16.2624 16.2991 16.203 16.4044 16.0974C17.5676 14.9321 18.2115 13.4169 18.2115 13.4169C18.8751 11.8401 18.8751 10.1312 18.8751 10.1312C18.8751 8.42244 18.2123 6.84743 18.2123 6.84743C17.5677 5.33059 16.4048 4.16546 16.4048 4.16546Z" fill="#CA6702"/>
</svg>
