<svg width="16" height="16" viewBox="0 0 16 16" fill="none" xmlns="http://www.w3.org/2000/svg">
<rect width="16" height="16" fill="white" fill-opacity="0.01"/>
<g clip-path="url(#clip0_170_878)">
<rect width="14" height="14" transform="translate(1 1)" fill="white" fill-opacity="0.01"/>
<g clip-path="url(#clip1_170_878)">
<path d="M14.9996 7.99915C14.9996 9.85566 14.2621 11.6361 12.9494 12.9489C11.6366 14.2616 9.85615 14.9991 7.99963 14.9991C6.14312 14.9991 4.36264 14.2616 3.04989 12.9489C1.73713 11.6361 0.999634 9.85566 0.999634 7.99915C0.999634 6.14263 1.73713 4.36215 3.04989 3.0494C4.36264 1.73664 6.14312 0.999146 7.99963 0.999146C9.85615 0.999146 11.6366 1.73664 12.9494 3.0494C14.2621 4.36215 14.9996 6.14263 14.9996 7.99915ZM5.68438 5.0644C5.60223 4.98224 5.49081 4.93609 5.37463 4.93609C5.25845 4.93609 5.14703 4.98224 5.06488 5.0644C4.98273 5.14655 4.93658 5.25797 4.93658 5.37415C4.93658 5.49032 4.98273 5.60174 5.06488 5.6839L7.38101 7.99915L5.06488 10.3144C5.02421 10.3551 4.99194 10.4034 4.96993 10.4565C4.94791 10.5097 4.93658 10.5666 4.93658 10.6241C4.93658 10.6817 4.94791 10.7386 4.96993 10.7918C4.99194 10.8449 5.02421 10.8932 5.06488 10.9339C5.14703 11.016 5.25845 11.0622 5.37463 11.0622C5.43216 11.0622 5.48912 11.0509 5.54227 11.0289C5.59542 11.0068 5.64371 10.9746 5.68438 10.9339L7.99963 8.61777L10.3149 10.9339C10.3556 10.9746 10.4039 11.0068 10.457 11.0289C10.5101 11.0509 10.5671 11.0622 10.6246 11.0622C10.6822 11.0622 10.7391 11.0509 10.7923 11.0289C10.8454 11.0068 10.8937 10.9746 10.9344 10.9339C10.9751 10.8932 11.0073 10.8449 11.0293 10.7918C11.0514 10.7386 11.0627 10.6817 11.0627 10.6241C11.0627 10.5666 11.0514 10.5097 11.0293 10.4565C11.0073 10.4034 10.9751 10.3551 10.9344 10.3144L8.61826 7.99915L10.9344 5.6839C10.9751 5.64322 11.0073 5.59493 11.0293 5.54178C11.0514 5.48863 11.0627 5.43167 11.0627 5.37415C11.0627 5.31662 11.0514 5.25966 11.0293 5.20651C11.0073 5.15336 10.9751 5.10507 10.9344 5.0644C10.8937 5.02372 10.8454 4.99145 10.7923 4.96944C10.7391 4.94742 10.6822 4.93609 10.6246 4.93609C10.5671 4.93609 10.5101 4.94742 10.457 4.96944C10.4039 4.99145 10.3556 5.02372 10.3149 5.0644L7.99963 7.38052L5.68438 5.0644Z" fill="#6C757D"/>
</g>
</g>
<defs>
<clipPath id="clip0_170_878">
<rect width="14" height="14" fill="white" transform="translate(1 1)"/>
</clipPath>
<clipPath id="clip1_170_878">
<rect width="14" height="14" fill="white" transform="translate(1 1)"/>
</clipPath>
</defs>
</svg>
