<svg width="104" height="50" viewBox="0 0 104 50" fill="none" xmlns="http://www.w3.org/2000/svg">
<path d="M42.4478 10.3516H49.3323V12.1026H44.4925V14.1453H48.6509V15.8963H44.4925V18.1339H49.3323V19.8708H42.4478V10.3511V10.3516Z" fill="#001517"/>
<path d="M51.3278 10.3518H55.0691C57.6003 10.3518 59.6587 11.8527 59.6587 15.1187C59.6587 17.9122 57.6003 19.8716 55.0691 19.8716H51.3278V10.3518ZM54.8465 17.9257C56.3068 17.9257 57.5862 16.8832 57.5862 15.1182C57.5862 13.2005 56.3068 12.2971 54.8465 12.2971H53.3721V17.9257H54.8465Z" fill="#001517"/>
<path d="M60.8909 15.1186C60.8909 12.4643 62.9769 10.1433 65.8423 10.1433C67.4554 10.1433 68.6238 10.8101 69.4861 11.7552L68.1092 13.1587C67.6363 12.6304 66.9273 12.1027 65.8423 12.1027C64.0618 12.1027 62.8523 13.576 62.8523 15.1186C62.8523 16.7586 64.1599 18.1481 65.8423 18.1481C66.8298 18.1481 67.6228 17.7448 68.0951 17.1056L69.4861 18.4815C68.6238 19.4958 67.372 20.1074 65.8423 20.1074C62.9774 20.1074 60.8909 17.7589 60.8909 15.1181V15.1186Z" fill="#001517"/>
<path d="M42.2809 28.2091C44.0196 29.1959 46.5509 29.5991 46.5509 28.3899C46.5509 27.3339 41.6694 27.7783 41.808 24.9572C41.9889 22.4972 45.6468 22.0387 48.4001 23.8595L47.6071 25.1938C46.1327 24.0544 43.8799 24.1378 43.8382 25.0687C43.7965 26.0971 48.5669 25.8611 48.5669 28.3071C48.5669 30.7531 45.8272 31.9065 41.5989 29.8221L42.2804 28.2102L42.2809 28.2091Z" fill="#001517"/>
<path d="M49.4878 27.0004C49.4878 24.8603 51.226 23.1228 53.3542 23.1228C55.4824 23.1228 57.2206 24.8597 57.2206 27.0004V33.1015H55.2733V29.9606C54.8422 30.5024 54.1331 30.8499 53.3542 30.8499C51.2265 30.8499 49.4878 29.1265 49.4878 27.0004ZM51.4351 27.0004C51.4351 28.0564 52.2974 28.9046 53.3542 28.9046C54.411 28.9046 55.2733 28.057 55.2733 27.0004C55.2733 25.9439 54.411 25.0686 53.3542 25.0686C52.2974 25.0686 51.4351 25.9303 51.4351 27.0004Z" fill="#001517"/>
<path d="M58.7741 26.917V23.0811H60.7214V26.917C60.7214 28.0147 61.4304 28.7097 62.4737 28.7097C63.5169 28.7097 64.226 28.0147 64.226 26.917V23.0811H66.1733V26.917C66.1733 29.1129 64.5737 30.6555 62.4737 30.6555C60.3736 30.6555 58.7741 29.1129 58.7741 26.917Z" fill="#001517"/>
<path d="M67.4224 26.7498C67.4224 24.6372 69.147 22.9138 71.2747 22.9138C73.4024 22.9138 75.1135 24.6372 75.1135 26.7498V30.655H73.1662V29.7375C72.735 30.2517 72.0536 30.5992 71.2747 30.5992C69.147 30.5992 67.4224 28.8758 67.4224 26.7498ZM73.1662 26.7498C73.1662 25.7073 72.3179 24.8597 71.2747 24.8597C70.2314 24.8597 69.3691 25.7073 69.3691 26.7498C69.3691 27.7922 70.2174 28.6539 71.2747 28.6539C72.332 28.6539 73.1662 27.8063 73.1662 26.7498Z" fill="#001517"/>
<path d="M76.9784 23.081H78.8282V23.9427C79.176 23.2759 80.2469 23.0394 81.1368 23.081V25.0269C80.0102 24.8326 78.9252 25.5411 78.9252 26.7086V30.5164H76.9779V23.081H76.9784Z" fill="#001517"/>
<path d="M81.9547 26.7498C81.9547 24.7487 83.2758 22.8586 85.5427 22.8721C88.0181 22.8862 89.7428 24.8315 89.0473 27.6114H84.0824C84.1799 28.2783 84.9723 28.9181 85.9181 28.9181C86.4327 28.9321 87.3226 28.6956 87.5729 28.3481L89.0473 29.4739C88.2965 30.3216 87.0865 30.655 85.7231 30.655C83.4697 30.655 81.9542 28.6675 81.9542 26.7498H81.9547ZM87.1422 25.9297C87.2116 25.4296 86.8086 24.5815 85.6126 24.5815C84.5834 24.5815 84.0688 25.3322 84.0688 25.9297H87.1422Z" fill="#001517"/>
<path d="M90.2466 26.889C90.2466 24.7629 91.9848 23.0254 94.113 23.0254C94.8919 23.0254 95.601 23.387 96.0321 23.9147V20.7878H97.9794V27.3333C97.9794 28.1393 98.4382 28.5009 98.8 28.5009V30.516C98.0211 30.516 97.3121 30.4185 96.811 29.4876C96.1713 30.2935 95.3366 30.7525 94.113 30.7525C91.9853 30.7525 90.2466 29.0291 90.2466 26.889ZM96.0321 26.889C96.0321 25.833 95.1839 24.9713 94.113 24.9713C93.0421 24.9713 92.1939 25.833 92.1939 26.889C92.1939 27.945 93.0562 28.8067 94.113 28.8067C95.1698 28.8067 96.0321 27.959 96.0321 26.889Z" fill="#001517"/>
<path d="M9.1753 10.7042C9.1753 10.4135 8.80968 10.2885 8.62822 10.5153C6.48376 13.1978 5.20001 16.5975 5.20001 20.2975C5.20001 23.9976 6.48376 27.3973 8.62822 30.0798C8.80968 30.3066 9.1753 30.1816 9.1753 29.8909V10.7042Z" fill="#BB3E03"/>
<path d="M32.636 29.8827C32.636 30.1734 33.0022 30.2984 33.1831 30.0716C35.3237 27.3902 36.6048 23.9943 36.6048 20.2975C36.6048 16.6006 35.3237 13.2048 33.1831 10.5233C33.0016 10.296 32.636 10.4216 32.636 10.7122V29.8827Z" fill="#0D9396"/>
<path d="M29.7521 17.1835V7.50027C29.7521 7.39797 29.7018 7.30163 29.6167 7.24479C28.5578 6.5379 27.4078 5.95713 26.1885 5.52195C25.9881 5.4505 25.7769 5.59719 25.7769 5.80936V14.9551H25.7991L28.2252 17.3794C28.3449 17.499 28.3449 17.6923 28.2252 17.8119L26.0157 20.0197C25.896 20.1393 25.896 20.3326 26.0157 20.4522L28.2252 22.66C28.3449 22.7796 28.3449 22.9728 28.2252 23.0925L25.7991 25.5168H25.7769V34.7859C25.7769 34.9981 25.9881 35.1448 26.1885 35.0733C27.4078 34.6382 28.5578 34.0574 29.6167 33.3505C29.7018 33.2937 29.7521 33.1973 29.7521 33.095V23.2879C29.7521 23.2067 29.7846 23.1293 29.8415 23.0719L32.4632 20.4522C32.5829 20.3326 32.5829 20.1393 32.4632 20.0197L29.8415 17.4C29.7841 17.3426 29.7521 17.2647 29.7521 17.184V17.1835Z" fill="url(#paint0_linear_690_1681)"/>
<path d="M16.1238 12.6412L18.46 10.3067C18.5797 10.1871 18.5797 9.99384 18.46 9.87422L16.1238 7.53975C16.0664 7.48238 16.0344 7.40443 16.0344 7.32378V5.80716C16.0344 5.59499 15.8232 5.44831 15.6233 5.51975C14.404 5.95439 13.2541 6.53408 12.1951 7.24043C12.1101 7.29726 12.0591 7.39361 12.0591 7.49591V33.0993C12.0591 33.2016 12.1095 33.298 12.1951 33.3548C13.2541 34.0611 14.404 34.6408 15.6233 35.0755C15.8237 35.1469 16.0344 35.0002 16.0344 34.7881V33.148C16.0344 33.0668 16.0669 32.9894 16.1238 32.9321L18.46 30.5976C18.5797 30.478 18.5797 30.2847 18.46 30.1651L16.1238 27.8307C16.0664 27.7733 16.0344 27.6953 16.0344 27.6147V12.8571C16.0344 12.7759 16.0669 12.6985 16.1238 12.6412Z" fill="url(#paint1_linear_690_1681)"/>
<path d="M22.9829 17.6588L25.3191 15.3243C25.4388 15.2047 25.4388 15.0115 25.3191 14.8918L22.9829 12.5574C22.9255 12.5 22.8936 12.4221 22.8936 12.3414V5.0089C22.8936 4.85356 22.7776 4.72149 22.6227 4.70417C22.0578 4.64138 21.4841 4.6062 20.9024 4.6062C20.3206 4.6062 19.7519 4.64138 19.1886 4.70309C19.0342 4.72041 18.9177 4.85248 18.9177 5.00782V10.4215H18.9643L21.3904 12.8459C21.5101 12.9655 21.5101 13.1587 21.3904 13.2783L18.9643 15.7027H18.9177V24.7683H18.9643L21.3904 27.1926C21.5101 27.3122 21.5101 27.5055 21.3904 27.6251L18.9643 30.0494H18.9177V35.5871C18.9177 35.7424 19.0342 35.8745 19.1886 35.8918C19.7513 35.954 20.3228 35.9887 20.9024 35.9887C21.482 35.9887 22.0572 35.9535 22.6227 35.8907C22.7771 35.8734 22.8936 35.7413 22.8936 35.586V28.1306C22.8936 28.0494 22.9255 27.972 22.9829 27.9146L25.3191 25.5802C25.4388 25.4606 25.4388 25.2673 25.3191 25.1477L22.9829 22.8132C22.9255 22.7559 22.8936 22.6779 22.8936 22.5973V17.8758C22.8936 17.7946 22.9255 17.7172 22.9829 17.6599V17.6588Z" fill="url(#paint2_linear_690_1681)"/>
<path d="M0 49H102" stroke="#9FD0BD"/>
<defs>
<linearGradient id="paint0_linear_690_1681" x1="29.165" y1="35.0912" x2="29.165" y2="5.50355" gradientUnits="userSpaceOnUse">
<stop stop-color="#0D9396"/>
<stop offset="0.07" stop-color="#129597"/>
<stop offset="0.16" stop-color="#229D9C"/>
<stop offset="0.27" stop-color="#3CA9A3"/>
<stop offset="0.38" stop-color="#60BAAE"/>
<stop offset="0.49" stop-color="#8FD0BB"/>
<stop offset="0.5" stop-color="#93D2BD"/>
<stop offset="0.67" stop-color="#62BBAE"/>
<stop offset="0.89" stop-color="#259E9C"/>
<stop offset="1" stop-color="#0D9396"/>
</linearGradient>
<linearGradient id="paint1_linear_690_1681" x1="15.3043" y1="35.0933" x2="15.3043" y2="5.50135" gradientUnits="userSpaceOnUse">
<stop stop-color="#BB3E03"/>
<stop offset="0.5" stop-color="#EE9B00"/>
<stop offset="0.58" stop-color="#E28600"/>
<stop offset="0.77" stop-color="#CD5F01"/>
<stop offset="0.91" stop-color="#BF4602"/>
<stop offset="1" stop-color="#BB3E03"/>
</linearGradient>
<linearGradient id="paint2_linear_690_1681" x1="22.1634" y1="35.9881" x2="22.1634" y2="4.60674" gradientUnits="userSpaceOnUse">
<stop stop-color="#EE9B00"/>
<stop offset="0.5" stop-color="#E8D8A8"/>
<stop offset="0.59" stop-color="#E9C97F"/>
<stop offset="0.73" stop-color="#EBB549"/>
<stop offset="0.85" stop-color="#ECA721"/>
<stop offset="0.94" stop-color="#ED9E08"/>
<stop offset="1" stop-color="#EE9B00"/>
</linearGradient>
</defs>
</svg>
