<svg width="20" height="20" viewBox="0 0 20 20" fill="none" xmlns="http://www.w3.org/2000/svg">
<g id="user">
<g id="Vector">
<path d="M12.357 8.19036C12.9822 7.56523 13.3334 6.71739 13.3334 5.83333C13.3334 4.94928 12.9822 4.10143 12.357 3.47631C11.7319 2.85119 10.8841 2.5 10 2.5C9.11597 2.5 8.26812 2.85119 7.643 3.47631C7.01788 4.10143 6.66669 4.94928 6.66669 5.83333C6.66669 6.71739 7.01788 7.56523 7.643 8.19036C8.26812 8.81548 9.11597 9.16667 10 9.16667C10.8841 9.16667 11.7319 8.81548 12.357 8.19036Z" stroke="#202020" stroke-width="2" stroke-linecap="round" stroke-linejoin="round"/>
<path d="M5.87523 13.3752C6.96919 12.2812 8.45292 11.6667 10 11.6667C11.5471 11.6667 13.0308 12.2812 14.1248 13.3752C15.2188 14.4692 15.8334 15.9529 15.8334 17.5H4.16669C4.16669 15.9529 4.78127 14.4692 5.87523 13.3752Z" stroke="#202020" stroke-width="2" stroke-linecap="round" stroke-linejoin="round"/>
</g>
</g>
</svg>
