<svg width="18" height="18" viewBox="0 0 18 18" fill="none" xmlns="http://www.w3.org/2000/svg">
<path id="Vector" d="M1.54583 8.16667H3.16667C3.60869 8.16667 4.03262 8.34226 4.34518 8.65482C4.65774 8.96738 4.83333 9.39131 4.83333 9.83333V10.6667C4.83333 11.1087 5.00893 11.5326 5.32149 11.8452C5.63405 12.1577 6.05797 12.3333 6.5 12.3333C6.94203 12.3333 7.36595 12.5089 7.67851 12.8215C7.99107 13.134 8.16667 13.558 8.16667 14V16.4542M5.66667 2.27917V3.58333C5.66667 4.13587 5.88616 4.66577 6.27686 5.05647C6.66756 5.44717 7.19747 5.66667 7.75 5.66667H8.16667C8.60869 5.66667 9.03262 5.84226 9.34518 6.15482C9.65774 6.46738 9.83333 6.89131 9.83333 7.33333C9.83333 7.77536 10.0089 8.19928 10.3215 8.51184C10.634 8.8244 11.058 9 11.5 9C11.942 9 12.366 8.8244 12.6785 8.51184C12.9911 8.19928 13.1667 7.77536 13.1667 7.33333C13.1667 6.89131 13.3423 6.46738 13.6548 6.15482C13.9674 5.84226 14.3913 5.66667 14.8333 5.66667H15.72M11.5 16.0733V14C11.5 13.558 11.6756 13.134 11.9882 12.8215C12.3007 12.5089 12.7246 12.3333 13.1667 12.3333H15.72M16.5 9C16.5 9.98491 16.306 10.9602 15.9291 11.8701C15.5522 12.7801 14.9997 13.6069 14.3033 14.3033C13.6069 14.9997 12.7801 15.5522 11.8701 15.9291C10.9602 16.306 9.98491 16.5 9 16.5C8.01509 16.5 7.03982 16.306 6.12987 15.9291C5.21993 15.5522 4.39314 14.9997 3.6967 14.3033C3.00026 13.6069 2.44781 12.7801 2.0709 11.8701C1.69399 10.9602 1.5 9.98491 1.5 9C1.5 7.01088 2.29018 5.10322 3.6967 3.6967C5.10322 2.29018 7.01088 1.5 9 1.5C10.9891 1.5 12.8968 2.29018 14.3033 3.6967C15.7098 5.10322 16.5 7.01088 16.5 9Z" stroke="#202020" stroke-width="2" stroke-linecap="round" stroke-linejoin="round"/>
</svg>
