<svg width="20" height="22" viewBox="0 0 20 22" fill="none" xmlns="http://www.w3.org/2000/svg">
<path d="M20.0001 8.90142C19.8148 8.91702 19.6295 8.92482 19.4442 8.93262C17.3976 8.93262 15.488 7.93404 14.3681 6.28014V15.322C14.3681 19.0121 11.2741 22.0078 7.46296 22.0078C3.65186 22.0078 0.557861 19.0121 0.557861 15.322C0.557861 11.6319 3.65186 8.63617 7.46296 8.63617C7.608 8.63617 7.74497 8.65177 7.89 8.65957V11.9518C7.74497 11.9362 7.608 11.9128 7.46296 11.9128C5.52116 11.9128 3.94192 13.4418 3.94192 15.322C3.94192 17.2021 5.52116 18.7312 7.46296 18.7312C9.40477 18.7312 11.129 17.2489 11.129 15.361L11.1613 0H14.4164C14.7226 2.82411 17.0753 5.03191 20.0001 5.24255V8.90142Z" fill="#3E3E36"/>
</svg>
