<svg width="29" height="33" viewBox="0 0 29 33" fill="none" xmlns="http://www.w3.org/2000/svg">
<path d="M28.5 12.9812C28.2298 13.004 27.9595 13.0154 27.6893 13.0267C24.7047 13.0267 21.9199 11.5705 20.2866 9.15854V22.3446C20.2866 27.7259 15.7745 32.0947 10.2167 32.0947C4.65881 32.0947 0.146729 27.7259 0.146729 22.3446C0.146729 16.9632 4.65881 12.5944 10.2167 12.5944C10.4282 12.5944 10.6279 12.6172 10.8394 12.6285V17.4297C10.6279 17.4069 10.4282 17.3728 10.2167 17.3728C7.38487 17.3728 5.08182 19.6027 5.08182 22.3446C5.08182 25.0864 7.38487 27.3163 10.2167 27.3163C13.0485 27.3163 15.563 25.1547 15.563 22.4014L15.61 0H20.3571C20.8036 4.1185 24.2347 7.33821 28.5 7.64539V12.9812Z" fill="#3E3E36"/>
</svg>
