<svg width="40" height="40" viewBox="0 0 40 40" fill="none" xmlns="http://www.w3.org/2000/svg">
<path d="M26.6166 31.6159C26.3822 31.8503 26.25 32.1687 26.25 32.5002C26.25 32.5203 26.2505 32.5403 26.2514 32.5603C26.2664 32.8707 26.3964 33.1644 26.6161 33.3841C26.8505 33.6186 27.1685 33.7502 27.5 33.7502C27.8315 33.7502 28.1495 33.6186 28.3839 33.3841L33.3839 28.3841C33.6183 28.1497 33.75 27.8318 33.75 27.5002C33.75 27.1687 33.6183 26.8508 33.3839 26.6164L28.3839 21.6164C28.1495 21.3819 27.8315 21.2502 27.5 21.2502C27.1685 21.2502 26.8505 21.3819 26.6161 21.6164C26.3817 21.8508 26.25 22.1687 26.25 22.5002C26.25 22.8318 26.3817 23.1497 26.6161 23.3841L30.7322 27.5002L26.6166 31.6159Z" fill="#DEE8EB"/>
<path d="M7.5 28.7502H32.5C33.1904 28.7502 33.75 28.1906 33.75 27.5002C33.75 26.8099 33.1904 26.2502 32.5 26.2502H7.5C6.80964 26.2502 6.25 26.8099 6.25 27.5002C6.25 28.1906 6.80964 28.7502 7.5 28.7502Z" fill="#DEE8EB"/>
<path d="M13.3834 8.3846C13.6178 8.15018 13.75 7.83176 13.75 7.50024C13.75 7.16872 13.6183 6.85078 13.3839 6.61636L13.3731 6.6057C13.1397 6.37824 12.8259 6.25024 12.5 6.25024L12.4931 6.25026C12.164 6.25208 11.8488 6.38363 11.6161 6.61636L6.61612 11.6164C6.3817 11.8508 6.25 12.1687 6.25 12.5002C6.25 12.8318 6.3817 13.1497 6.61612 13.3841L11.6161 18.3841C11.8505 18.6185 12.1685 18.7502 12.5 18.7502C12.5216 18.7502 12.5431 18.7497 12.5647 18.7486C12.8734 18.7326 13.1653 18.6027 13.3839 18.3841C13.6183 18.1497 13.75 17.8318 13.75 17.5002C13.75 17.1687 13.6183 16.8508 13.3839 16.6164L9.26777 12.5002L13.3834 8.3846Z" fill="#DEE8EB"/>
<path d="M32.5 11.2502H7.5C6.80964 11.2502 6.25 11.8099 6.25 12.5002C6.25 13.1906 6.80964 13.7502 7.5 13.7502H32.5C33.1904 13.7502 33.75 13.1906 33.75 12.5002C33.75 11.8099 33.1904 11.2502 32.5 11.2502Z" fill="#DEE8EB"/>
</svg>
