<svg width="21" height="16" viewBox="0 0 21 16" fill="none" xmlns="http://www.w3.org/2000/svg">
<path d="M20.5792 2.00061C19.9508 2.27366 19.2578 2.44529 18.581 2.55451C18.9033 2.4999 19.3787 1.9382 19.564 1.71196C19.8541 1.36089 20.0958 0.970823 20.2247 0.541745C20.2408 0.510539 20.257 0.46373 20.2247 0.440326C20.1844 0.424723 20.1522 0.432525 20.12 0.448128C19.3626 0.838199 18.581 1.12685 17.7431 1.32969C17.6706 1.34529 17.6222 1.32969 17.5819 1.29068C17.5094 1.21267 17.445 1.14245 17.3724 1.08784C17.026 0.799191 16.6473 0.57295 16.2202 0.40912C15.6643 0.190681 15.0519 0.0970638 14.4557 0.136071C13.8756 0.175078 13.3035 0.331106 12.7798 0.596355C12.2641 0.861603 11.7968 1.22047 11.4262 1.66515C11.0475 2.11763 10.7655 2.65593 10.6204 3.22543C10.4835 3.77933 10.4915 4.31763 10.5801 4.87933C10.5963 4.97295 10.5801 4.98075 10.4996 4.97295C7.23636 4.50487 4.53717 3.37366 2.34558 0.95522C2.2489 0.853802 2.20055 0.853801 2.11998 0.963021C1.16116 2.35948 1.62848 4.59068 2.82096 5.69068C2.98211 5.83891 3.14326 5.98713 3.32052 6.11976C3.25606 6.13536 2.45838 6.04955 1.74934 5.69068C1.65265 5.63607 1.60431 5.66728 1.59625 5.76869C1.5882 5.91692 1.59625 6.05735 1.62043 6.22118C1.80574 7.63323 2.81291 8.93607 4.19876 9.45096C4.35991 9.52118 4.54523 9.57579 4.72249 9.60699C4.40825 9.67721 4.08596 9.72401 3.17548 9.6538C3.06268 9.6304 3.0224 9.68501 3.06268 9.79423C3.7395 11.5886 5.20592 12.1191 6.30977 12.4233C6.4548 12.4467 6.59984 12.4467 6.75293 12.4779C6.74487 12.4935 6.73681 12.4935 6.72875 12.5013C6.36617 13.0396 5.10118 13.4375 4.513 13.6403C3.44138 13.9992 2.28113 14.163 1.1531 14.0538C0.975844 14.0304 0.935556 14.0304 0.887212 14.0538C0.838868 14.085 0.887213 14.124 0.935557 14.1708C1.16116 14.319 1.39482 14.4439 1.63654 14.5765C2.35364 14.9432 3.10297 15.2396 3.88453 15.4503C7.92929 16.5347 12.4736 15.7389 15.5112 12.8212C17.8962 10.5276 18.7261 7.36799 18.7261 4.20061C18.7261 4.07579 18.8792 4.00557 18.9678 3.94316C19.5882 3.49068 20.0878 2.95238 20.547 2.35167C20.6518 2.21905 20.6518 2.09423 20.6518 2.04742V2.03182C20.6518 1.98501 20.6518 1.99281 20.5712 2.03182L20.5792 2.00061Z" fill="#A1A1A1"/>
</svg>
