<svg width="16" height="16" viewBox="0 0 16 16" fill="none" xmlns="http://www.w3.org/2000/svg">
<g clip-path="url(#clip0_3_79)">
<rect width="16" height="16" fill="white" fill-opacity="0.01"/>
<g clip-path="url(#clip1_3_79)">
<path d="M0.49965 9.89918C0.632258 9.89918 0.759435 9.95186 0.853203 10.0456C0.946972 10.1394 0.99965 10.2666 0.99965 10.3992V12.8992C0.99965 13.1644 1.10501 13.4188 1.29254 13.6063C1.48008 13.7938 1.73443 13.8992 1.99965 13.8992H13.9997C14.2649 13.8992 14.5192 13.7938 14.7068 13.6063C14.8943 13.4188 14.9997 13.1644 14.9997 12.8992V10.3992C14.9997 10.2666 15.0523 10.1394 15.1461 10.0456C15.2399 9.95186 15.367 9.89918 15.4997 9.89918C15.6323 9.89918 15.7594 9.95186 15.8532 10.0456C15.947 10.1394 15.9997 10.2666 15.9997 10.3992V12.8992C15.9997 13.4296 15.7889 13.9383 15.4139 14.3134C15.0388 14.6885 14.5301 14.8992 13.9997 14.8992H1.99965C1.46922 14.8992 0.960509 14.6885 0.585436 14.3134C0.210364 13.9383 -0.000349998 13.4296 -0.000349998 12.8992V10.3992C-0.000349998 10.2666 0.0523284 10.1394 0.146097 10.0456C0.239865 9.95186 0.367042 9.89918 0.49965 9.89918Z" fill="white"/>
<path d="M7.64565 1.14518C7.6921 1.09862 7.74727 1.06168 7.80802 1.03647C7.86876 1.01127 7.93388 0.998291 7.99965 0.998291C8.06542 0.998291 8.13054 1.01127 8.19128 1.03647C8.25203 1.06168 8.3072 1.09862 8.35365 1.14518L11.3537 4.14518C11.4475 4.23907 11.5003 4.36641 11.5003 4.49918C11.5003 4.63196 11.4475 4.7593 11.3537 4.85318C11.2598 4.94707 11.1324 4.99982 10.9997 4.99982C10.8669 4.99982 10.7395 4.94707 10.6456 4.85318L8.49965 2.70618V11.4992C8.49965 11.6318 8.44697 11.759 8.3532 11.8527C8.25944 11.9465 8.13226 11.9992 7.99965 11.9992C7.86704 11.9992 7.73986 11.9465 7.6461 11.8527C7.55233 11.759 7.49965 11.6318 7.49965 11.4992V2.70618L5.35365 4.85318C5.30716 4.89967 5.25197 4.93655 5.19123 4.96171C5.13049 4.98687 5.06539 4.99982 4.99965 4.99982C4.93391 4.99982 4.86881 4.98687 4.80807 4.96171C4.74733 4.93655 4.69214 4.89967 4.64565 4.85318C4.59916 4.8067 4.56229 4.75151 4.53713 4.69077C4.51197 4.63003 4.49902 4.56493 4.49902 4.49918C4.49902 4.43344 4.51197 4.36834 4.53713 4.3076C4.56229 4.24686 4.59916 4.19167 4.64565 4.14518L7.64565 1.14518Z" fill="white"/>
</g>
</g>
<defs>
<clipPath id="clip0_3_79">
<rect width="16" height="16" fill="white"/>
</clipPath>
<clipPath id="clip1_3_79">
<rect width="16" height="16" fill="white"/>
</clipPath>
</defs>
</svg>
