<svg width="20" height="20" viewBox="0 0 20 20" fill="none" xmlns="http://www.w3.org/2000/svg">
<g id="user">
<g id="Vector">
<path d="M12.3571 8.19036C12.9822 7.56523 13.3334 6.71739 13.3334 5.83333C13.3334 4.94928 12.9822 4.10143 12.3571 3.47631C11.732 2.85119 10.8841 2.5 10.0001 2.5C9.11603 2.5 8.26818 2.85119 7.64306 3.47631C7.01794 4.10143 6.66675 4.94928 6.66675 5.83333C6.66675 6.71739 7.01794 7.56523 7.64306 8.19036C8.26818 8.81548 9.11603 9.16667 10.0001 9.16667C10.8841 9.16667 11.732 8.81548 12.3571 8.19036Z" stroke="white" stroke-width="2" stroke-linecap="round" stroke-linejoin="round"/>
<path d="M5.87529 13.3752C6.96925 12.2812 8.45299 11.6667 10.0001 11.6667C11.5472 11.6667 13.0309 12.2812 14.1249 13.3752C15.2188 14.4692 15.8334 15.9529 15.8334 17.5H4.16675C4.16675 15.9529 4.78133 14.4692 5.87529 13.3752Z" stroke="white" stroke-width="2" stroke-linecap="round" stroke-linejoin="round"/>
</g>
</g>
</svg>
