<svg width="22" height="22" viewBox="0 0 22 22" fill="none" xmlns="http://www.w3.org/2000/svg">
<g id="Social Icons" clip-path="url(#clip0_529_3731)">
<path id="Vector" d="M21.5618 5.67C21.4374 5.20196 21.1923 4.7748 20.851 4.43127C20.5096 4.08773 20.0841 3.83988 19.6168 3.7125C17.8968 3.25 11.0218 3.25 11.0218 3.25C11.0218 3.25 4.14682 3.25 2.42682 3.7125C1.95959 3.83988 1.53401 4.08773 1.19267 4.43127C0.851326 4.7748 0.6062 5.20196 0.48182 5.67C0.0218201 7.3975 0.0218201 11 0.0218201 11C0.0218201 11 0.0218201 14.6025 0.48182 16.33C0.6062 16.798 0.851326 17.2252 1.19267 17.5687C1.53401 17.9123 1.95959 18.1601 2.42682 18.2875C4.14682 18.75 11.0218 18.75 11.0218 18.75C11.0218 18.75 17.8968 18.75 19.6168 18.2875C20.0841 18.1601 20.5096 17.9123 20.851 17.5687C21.1923 17.2252 21.4374 16.798 21.5618 16.33C22.0218 14.6025 22.0218 11 22.0218 11C22.0218 11 22.0218 7.3975 21.5618 5.67Z" fill="#FF0302"/>
<path id="Vector_2" d="M8.77184 14.2713V7.72876L14.5218 11L8.77184 14.2713Z" fill="#FEFEFE"/>
</g>
<defs>
<clipPath id="clip0_529_3731">
<rect width="22" height="22" fill="white"/>
</clipPath>
</defs>
</svg>
